<?xml version="1.0" standalone="no"?>
<!DOCTYPE svg PUBLIC "-//W3C//DTD SVG 20010904//EN"
 "http://www.w3.org/TR/2001/REC-SVG-20010904/DTD/svg10.dtd">
<svg version="1.0" xmlns="http://www.w3.org/2000/svg"
 width="843.000000pt" height="843.000000pt" viewBox="0 0 843.000000 843.000000"
 preserveAspectRatio="xMidYMid meet">
<metadata>
Created by potrace 1.14, written by Peter Selinger 2001-2017
</metadata>
<g transform="translate(0.000000,843.000000) scale(0.100000,-0.100000)"
fill="#000000" stroke="none">
<path d="M2493 8394 c3 -22 10 -64 16 -94 6 -30 13 -68 16 -85 3 -16 8 -43 12
-60 3 -16 7 -41 9 -53 1 -13 7 -45 13 -70 5 -26 13 -65 17 -87 4 -22 8 -42 9
-45 1 -3 5 -27 9 -55 4 -27 12 -66 16 -85 5 -19 12 -57 16 -85 3 -27 8 -53 10
-56 2 -3 6 -21 9 -40 7 -46 24 -133 38 -194 6 -27 11 -61 12 -75 1 -14 5 -36
8 -50 4 -14 9 -36 11 -50 3 -14 7 -35 10 -46 2 -12 7 -39 10 -60 3 -22 8 -50
11 -64 10 -48 15 -75 20 -105 3 -16 8 -43 12 -60 4 -16 7 -34 8 -40 1 -5 3
-12 4 -15 2 -3 4 -16 5 -30 2 -14 6 -41 10 -60 4 -19 9 -46 11 -60 3 -22 8
-47 29 -145 2 -11 7 -39 11 -62 5 -31 15 -49 35 -63 15 -11 31 -20 34 -20 2 0
31 -15 63 -34 63 -36 154 -86 273 -149 41 -22 80 -43 85 -47 6 -4 41 -24 78
-44 37 -20 82 -45 100 -55 18 -10 68 -37 112 -61 44 -23 85 -46 90 -50 6 -4
51 -29 100 -55 50 -27 106 -57 125 -68 19 -11 69 -38 110 -60 41 -22 80 -43
85 -47 6 -4 46 -26 90 -50 44 -23 83 -45 87 -49 3 -3 9 -28 13 -56 4 -27 9
-59 11 -70 7 -41 14 -91 19 -135 3 -25 8 -52 10 -60 4 -13 50 -309 60 -379 2
-14 8 -55 14 -91 6 -36 13 -82 16 -102 9 -68 15 -103 19 -123 2 -11 7 -45 11
-75 4 -30 9 -64 11 -75 3 -11 6 -33 8 -50 3 -16 9 -59 15 -95 5 -36 13 -85 17
-110 3 -25 8 -54 10 -65 12 -78 12 -98 -2 -137 -9 -24 -17 -51 -20 -60 -2 -10
-6 -26 -8 -35 -3 -10 -13 -45 -24 -78 -11 -33 -30 -94 -42 -135 -12 -41 -24
-82 -27 -90 -8 -19 -7 -17 -22 -70 -12 -44 -21 -74 -37 -115 -4 -11 -8 -24 -9
-30 -2 -5 -13 -44 -26 -85 -12 -41 -23 -77 -24 -80 0 -3 -13 -43 -27 -90 -45
-143 -129 -414 -133 -430 -3 -14 -41 -141 -50 -168 -3 -7 -5 -16 -6 -20 -2 -4
-9 -27 -17 -52 -35 -112 -39 -106 36 -53 37 26 86 61 108 78 23 16 52 38 65
47 13 9 58 41 99 71 55 40 78 52 88 45 6 -6 12 -14 12 -19 0 -5 17 -38 38 -72
21 -35 41 -70 45 -77 4 -8 16 -28 27 -45 11 -16 25 -41 31 -55 6 -14 18 -33
27 -44 9 -10 16 -21 14 -24 -2 -4 1 -8 6 -10 6 -2 20 12 33 30 13 18 27 38 32
43 4 6 17 24 27 40 10 17 55 82 99 145 44 63 125 180 180 260 55 80 122 177
148 215 27 39 89 129 138 200 49 72 91 132 94 135 6 5 98 138 116 169 6 9 13
18 16 21 3 3 14 19 24 37 12 20 23 29 29 24 6 -5 43 -26 81 -46 127 -69 179
-97 230 -125 120 -66 186 -100 194 -100 4 0 8 6 8 13 1 6 4 64 7 127 4 63 8
162 11 220 3 58 7 152 10 210 6 102 8 139 19 375 3 61 8 162 11 225 3 63 8
151 10 195 2 44 7 134 10 200 3 66 8 158 10 205 7 159 17 335 19 337 1 2 20 5
42 7 86 10 160 18 189 22 17 2 54 6 84 8 30 3 66 7 80 10 14 3 61 8 103 11 42
4 88 9 102 13 l26 7 -23 25 c-19 21 -115 139 -167 204 -8 10 -22 26 -30 35 -8
9 -51 62 -95 116 -92 115 -106 133 -120 149 -6 6 -39 47 -75 91 -35 44 -78 96
-94 116 -17 20 -38 44 -46 55 -38 48 -145 180 -150 184 -4 4 -159 195 -182
225 -4 6 -21 26 -38 45 -17 19 -34 40 -38 45 -4 6 -26 33 -47 60 -22 28 -46
57 -53 65 -91 107 -144 178 -138 188 3 5 19 15 36 22 16 7 30 16 30 21 0 5 4
9 9 9 5 0 101 56 213 123 304 185 304 185 288 191 -14 5 -235 63 -270 71 -8 2
-141 35 -295 75 -154 39 -288 73 -297 76 -42 10 -58 14 -153 39 -55 15 -107
28 -115 30 -8 2 -96 24 -195 50 -99 25 -189 48 -199 50 -10 3 -55 14 -100 26
-148 38 -311 80 -326 83 -8 2 -35 9 -60 16 -25 7 -52 14 -60 16 -8 1 -80 19
-160 40 -80 20 -152 38 -160 40 -8 2 -51 13 -95 24 -44 12 -97 26 -117 31 -93
23 -119 29 -208 53 -52 14 -107 28 -122 31 -15 3 -40 10 -55 16 -15 6 -28 10
-28 9 0 -1 -11 1 -25 4 -14 3 -34 8 -45 10 -11 1 -27 6 -35 9 -13 5 -319 84
-360 92 -22 5 -131 34 -154 41 -17 6 -18 2 -13 -32z"/>
<path d="M4128 5355 c-3 -3 -15 -8 -27 -10 -46 -11 -57 -14 -86 -25 -16 -6
-37 -13 -45 -15 -19 -4 -301 -88 -405 -121 -44 -14 -87 -27 -95 -29 -8 -2 -53
-15 -99 -30 -46 -15 -91 -28 -100 -31 -9 -2 -83 -24 -166 -50 -82 -25 -170
-52 -195 -59 -25 -7 -74 -22 -110 -33 -36 -11 -157 -48 -270 -81 -113 -34
-225 -68 -250 -77 -25 -9 -51 -18 -59 -20 -8 -3 10 -19 44 -39 31 -19 59 -35
60 -35 3 0 221 -124 245 -140 8 -5 41 -24 73 -42 31 -18 57 -36 57 -40 0 -5
-34 -58 -75 -119 -41 -61 -75 -114 -75 -116 0 -2 -6 -10 -13 -18 -10 -11 -105
-154 -142 -214 -39 -64 -107 -161 -115 -166 -6 -4 -8 -11 -5 -16 4 -5 2 -9 -3
-9 -5 0 -15 -12 -23 -27 -8 -15 -19 -35 -26 -43 -7 -8 -68 -100 -137 -205 -68
-104 -128 -194 -133 -200 -5 -5 -20 -28 -33 -50 -13 -22 -28 -44 -32 -50 -5
-5 -73 -109 -152 -230 -79 -121 -151 -228 -160 -237 -22 -24 -6 -31 78 -34 69
-2 327 -14 375 -17 28 -2 35 -20 45 -117 4 -35 9 -66 10 -69 2 -3 7 -31 11
-61 3 -30 8 -62 10 -70 2 -8 7 -37 10 -65 10 -76 13 -94 24 -165 6 -36 13 -85
17 -110 3 -25 7 -52 8 -60 2 -8 6 -40 11 -70 4 -30 9 -64 12 -75 5 -24 12 -76
18 -130 2 -22 7 -51 10 -65 5 -24 9 -48 20 -130 3 -19 7 -46 10 -60 3 -14 7
-45 10 -70 3 -25 7 -56 10 -70 2 -14 7 -42 10 -62 11 -82 16 -115 25 -168 14
-86 24 -153 24 -177 1 -13 4 -23 7 -23 3 0 5 -11 4 -25 -4 -33 12 -31 55 6 19
17 54 47 78 67 23 20 55 48 70 62 16 14 50 44 76 68 26 23 51 42 57 42 5 0 9
4 9 10 0 5 9 14 20 20 17 9 28 7 56 -10 19 -12 40 -27 47 -33 7 -7 35 -28 62
-47 28 -19 55 -38 60 -43 6 -4 120 -87 255 -183 135 -96 252 -180 260 -187 8
-7 44 -33 80 -57 36 -25 67 -47 70 -50 3 -3 21 -17 40 -30 19 -13 37 -27 40
-30 3 -3 13 -9 22 -15 23 -14 408 -291 469 -337 26 -21 53 -38 59 -38 5 0 10
-3 10 -7 0 -5 17 -19 38 -32 20 -14 47 -34 60 -45 l23 -21 -5 70 c-6 75 -14
162 -21 235 -3 25 -7 72 -10 105 -3 33 -7 70 -10 81 -6 27 -3 29 115 91 52 28
118 64 145 80 28 16 88 50 135 75 47 25 154 84 238 131 83 47 152 82 152 79 0
-4 4 -2 8 4 4 5 43 30 87 54 44 24 94 51 110 60 17 9 61 34 100 54 38 21 103
57 145 80 71 41 108 61 295 162 44 24 87 48 95 54 8 5 42 23 75 41 69 36 88
50 57 44 -12 -2 -52 -6 -89 -10 -37 -3 -81 -7 -98 -9 -16 -2 -61 -7 -100 -10
-38 -4 -83 -9 -100 -11 -16 -2 -57 -7 -90 -10 -33 -4 -78 -9 -100 -11 -22 -2
-60 -6 -84 -9 -64 -6 -161 -16 -196 -21 -16 -2 -57 -6 -90 -9 -33 -2 -76 -6
-95 -9 -19 -3 -55 -8 -80 -10 -98 -10 -157 -17 -200 -21 -25 -2 -61 -6 -80 -9
-37 -6 -107 -13 -205 -21 -33 -3 -75 -7 -94 -10 -18 -3 -59 -8 -89 -11 -31 -3
-60 -8 -64 -10 -10 -6 -65 49 -168 165 -36 40 -74 83 -85 95 -123 136 -160
182 -162 200 -18 223 -20 432 -3 454 2 1 3 5 4 10 3 10 56 184 62 202 3 8 5
15 4 15 -1 0 5 18 13 40 9 22 40 119 70 215 31 96 59 186 63 200 4 14 9 27 9
30 1 3 17 52 35 110 19 58 35 107 35 110 1 3 12 39 25 80 13 41 25 77 25 80 2
11 107 338 121 376 8 23 17 51 19 63 2 12 13 48 24 79 73 213 77 239 57 332
-3 14 -8 48 -11 75 -5 48 -9 77 -20 140 -3 17 -8 46 -11 65 -3 19 -7 46 -10
60 -3 14 -6 39 -8 56 -2 17 -9 62 -15 100 -6 38 -13 83 -15 99 -2 17 -5 30 -6
30 -1 0 -3 14 -5 30 -5 46 -16 118 -20 135 -2 8 -7 38 -11 65 -3 28 -7 59 -9
70 -2 11 -6 38 -9 60 -5 35 -9 58 -21 140 -2 11 -4 22 -5 25 -1 3 -2 9 -1 14
6 31 -31 61 -51 41z"/>
</g>
</svg>
