<svg width="1629" height="4490" viewBox="0 0 1629 4490" fill="none" xmlns="http://www.w3.org/2000/svg">
<g clip-path="url(#clip0_40_50)">
<path d="M578.3 72.9999L506 145.8V945.7V1745.5L256.3 1995.2L6.7002 2244.8L256.3 2494L506 2743.2V3543.5V4343.8L578.5 4416.7L650.9 4489.5L651 3587.5V2685.5L595.9 2630.5C565.6 2600.2 466.8 2501.1 376.3 2410.2L211.7 2244.8L431.3 2025.2L651 1805.5L650.8 902.8L650.5 0.0999331L578.3 72.9999Z" fill="white"/>
<path d="M798.1 902V1804.5L1017.7 2024.8L1237.3 2245.2L1018.2 2464.3L799 2683.5V3586.5V4489.5L872 4416.5L945 4343.5V3543.5V2743.5L1194.1 2494.4L1443.2 2245.3L1193.6 1996L944 1746.7V946.6V146.5L871 72.9999L798.1 -0.500067V902Z" fill="white"/>
<path d="M70.3 742.1L1 811V1024.7V1238.4L178.3 1415.9C275.7 1513.6 356.1 1593.9 356.7 1594.3C357.7 1594.9 358 1575.5 358 1498.1V1401.1L249.3 1291.9L140.5 1182.7L140 928L139.5 673.2L70.3 742.1Z" fill="white"/>
<path d="M1312 927V1181.5L1202.5 1291.3L1093 1401.1V1498.8V1596.5L1271.5 1418L1450 1239.5V1025V810.5L1381 741.5L1312 672.5V927Z" fill="white"/>
<path d="M1 1531.1V1628.5L103.8 1731.3L206.5 1834.1L255.4 1785L304.3 1735.8L288.4 1719.9C279.7 1711.1 211.4 1643.1 136.8 1568.8L1 1433.8V1531.1Z" fill="white"/>
<path d="M1297.7 1585.3L1147 1735.5L1195.7 1784.8L1244.5 1834.2L1347.3 1731.3L1450 1628.5V1531.7C1450 1478.5 1449.7 1435 1449.3 1435.1C1448.8 1435.1 1380.7 1502.7 1297.7 1585.3Z" fill="white"/>
<path d="M564 2083.5L403.5 2244L563.5 2404C651.5 2492 723.8 2564 724.2 2564C724.6 2564 797 2492 885.2 2404.1L1045.5 2244.1L885 2083.6L724.5 1923L564 2083.5Z" fill="white"/>
<path d="M102.2 2764.3L0 2866.5V2964V3061.5L151.2 2910.3L302.5 2759L254 2710.5C227.3 2683.8 205.3 2662 205 2662C204.7 2662 158.5 2708 102.2 2764.3Z" fill="white"/>
<path d="M1194.2 2719.3C1167.7 2745.8 1146 2768 1146 2768.5C1146 2769.6 1446.1 3070 1447.3 3070C1447.7 3070 1448 3026.5 1448 2973.2V2876.5L1345.2 2773.7L1242.5 2671L1194.2 2719.3Z" fill="white"/>
<path d="M178.2 3077.3L0 3255.7V3470.1V3684.5L69 3753.5L138 3822.5V3567.5V3312.5L247.5 3203L357 3093.5L356.8 2996.2L356.5 2898.9L178.2 3077.3Z" fill="white"/>
<path d="M1091 3006.7V3103.5L1200 3212.5L1309 3321.5V3576.7C1309 3717.1 1309.3 3832 1309.7 3832C1310.2 3832 1341.4 3801.1 1379.2 3763.3L1448 3694.5V3480V3265.5L1270.5 3088C1172.9 2990.4 1092.6 2910.4 1092 2910.2C1091.3 2909.9 1091 2940.6 1091 3006.7Z" fill="white"/>
</g>
<defs>
<clipPath id="clip0_40_50">
<rect width="1629" height="4490" fill="white"/>
</clipPath>
</defs>
</svg>
