<svg width="2053" height="4483" viewBox="0 0 2053 4483" fill="none" xmlns="http://www.w3.org/2000/svg">
<g clip-path="url(#clip0_40_63)">
<path d="M1168.5 71.0629L1097.31 142.249V978.501V1814.75L1264.19 1981.63L1431.07 2148.51L1480.94 2098.64L1530.82 2048.76L1385.5 1903.43L1240.17 1758.1L1239.93 878.988L1239.56 -6.42762e-05L1168.5 71.0629Z" fill="white"/>
<path d="M812.825 879.358V1758.1L667.256 1903.67L521.563 2049.37L570.825 2098.64C597.919 2125.73 620.334 2147.9 620.703 2147.9C621.073 2147.9 696.567 2072.77 788.564 1980.89L955.686 1813.89V978.624V143.481L884.256 72.0481L812.825 0.615677V879.358Z" fill="white"/>
<path d="M309.736 1837.54C374.023 1901.83 427.226 1954.54 427.965 1954.54C428.704 1954.54 451.365 1932.37 478.459 1905.28L527.721 1856.01L459.985 1788.27L392.25 1720.54H292.494H192.738L309.736 1837.54Z" fill="white"/>
<path d="M1591.78 1788.27L1524.05 1856.01L1573.68 1905.52L1623.19 1955.15L1740.43 1837.78L1857.8 1720.54H1758.66H1659.52L1591.78 1788.27Z" fill="white"/>
<path d="M14.7788 1927.2C14.7788 1927.69 194.339 2107.63 413.802 2327.1L812.826 2726.13V3604.87V4483.62L884.256 4412.18L955.686 4340.75V3505.11V2669.48L584.003 2297.78L212.443 1926.21H113.549C59.2379 1926.21 14.7788 1926.58 14.7788 1927.2Z" fill="white"/>
<path d="M1470.11 2297.91L1098.55 2669.48V3503.27V4337.06L1169.36 4407.87L1240.17 4478.69V3602.41V2726.13L1640.06 2326.23L2040.07 1926.21H1940.93H1841.79L1470.11 2297.91Z" fill="white"/>
<path d="M869.477 2085.7L713.686 2241.5L869.847 2397.67L1025.88 2553.71L1181.92 2397.67L1338.08 2241.5L1182.29 2085.7C1096.58 1999.98 1026.25 1929.91 1025.88 1929.91C1025.51 1929.91 955.193 1999.98 869.477 2085.7Z" fill="white"/>
<path d="M1767.9 2385.6L1718.63 2434.86L1786.37 2502.6L1854.1 2570.34H1953.86H2053.62L1936.62 2453.33C1872.33 2388.92 1819.13 2336.33 1818.39 2336.33C1817.65 2336.33 1794.99 2358.5 1767.9 2385.6Z" fill="white"/>
<path d="M116.382 2454.57L-0.615723 2571.57H99.1401H198.896L266.385 2504.08L333.751 2436.71L284.119 2387.07C256.902 2359.86 234.365 2337.56 233.995 2337.56C233.626 2337.56 180.669 2390.15 116.382 2454.57Z" fill="white"/>
<path d="M1574.17 2580.56L1524.66 2630.07L1592.77 2698.17L1660.75 2766.16L1759.64 2765.91L1858.41 2765.54L1741.05 2648.17L1623.8 2530.92L1574.17 2580.56Z" fill="white"/>
<path d="M310.967 2649.16L193.97 2766.16H293.726H393.481L460.355 2699.28C497.055 2662.58 527.105 2631.92 527.105 2631.3C527.105 2630.07 429.812 2532.16 428.581 2532.16C428.211 2532.16 375.254 2584.74 310.967 2649.16Z" fill="white"/>
</g>
<defs>
<clipPath id="clip0_40_63">
<rect width="2053" height="4483" fill="white"/>
</clipPath>
</defs>
</svg>
