<svg width="1013" height="4489" viewBox="0 0 1013 4489" fill="none" xmlns="http://www.w3.org/2000/svg">
<path d="M471.8 35.4999L436 70.7999V944.8V1818.9L221.3 2031.1C103.1 2147.8 6.5 2243.7 6.5 2244C6.5 2244.4 103.1 2340.2 221.2 2456.9L436 2669.1V3542.8V4416.5L471.8 4452.2L507.5 4488L543.7 4452.4L580 4416.8V3542.7V2668.5L794.5 2456.6C912.5 2340.1 1009 2244.4 1009 2244C1009 2243.6 912.5 2147.9 794.5 2031.4L580 1819.5V945.5V71.4999L558.3 49.9999C546.3 38.1999 530 22.0999 522 14.2999L507.5 0.0999331L471.8 35.4999ZM665.7 2094.1C753.2 2178.5 824.9 2247.8 824.9 2248.1C825 2248.5 763.7 2307.9 688.8 2380.1C613.9 2452.4 542 2521.7 529.1 2534.2C516.2 2546.8 505.4 2557 505.1 2557C504.6 2557 209.2 2272.5 191.7 2255.1L184.8 2248.3L256.7 2178.9C296.2 2140.8 339.1 2099.5 352 2087.1C364.9 2074.7 383.2 2057 392.5 2047.9C441.5 2000 504.4 1940 505.4 1940.3C506 1940.5 578.1 2009.7 665.7 2094.1Z" fill="white"/>
<path d="M780.3 665.2L712 733.5V944.5V1155.5L780.5 1087L849 1018.5L848.8 807.7L848.5 597L780.3 665.2Z" fill="white"/>
<path d="M160 827.1L159.9 1035.5L228.2 1103.1L296.5 1170.8L296.8 962.1L297 753.5L234.3 691.5C199.7 657.4 168.9 627 165.8 624.1L160 618.7V827.1Z" fill="white"/>
<path d="M0 1155.7V1248.6L80 1327.5L160 1406.5V1546.1V1685.7L82.1 1762.6L4.2 1839.5L4.1 1938.9L4 2038.4L42.8 1999.9C64.1 1978.7 130 1913.6 189.2 1855.1L297 1748.8V1552.6V1356.3L188.3 1248.9C128.5 1189.8 61.6 1123.8 39.8 1102.1L0 1062.7V1155.7Z" fill="white"/>
<path d="M906 1164.2C849.6 1219.9 783 1285.7 757.8 1310.5L712.2 1355.5L712.1 1551.5L712 1747.6L843.1 1877C915.3 1948.2 981.4 2013.4 990.1 2021.8L1006 2037.2V1938.3V1839.5L927.4 1762L848.7 1684.5L849.4 1545L850.1 1405.5L885.8 1370C905.4 1350.5 941.4 1314.7 965.8 1290.6L1010 1246.6V1154.8C1010 1104.3 1009.6 1063 1009.2 1063C1008.8 1063 962.3 1108.5 906 1164.2Z" fill="white"/>
<path d="M7 2548.8V2647.7L84.9 2724.6L162.9 2801.5V2941.5V3081.5L82.9 3160.4L3 3239.2V3331.7V3424.2L16 3411.9C23.1 3405.1 89.9 3339.2 164.4 3265.5L300 3131.5L299.9 2935V2738.5L189.9 2630C129.4 2570.3 63.5 2505.4 43.4 2485.7L7 2449.8V2548.8Z" fill="white"/>
<path d="M861.3 2595.7L715 2740.3V2936V3131.7L863.1 3278.1C944.6 3358.6 1011.6 3424.6 1012.1 3424.8C1012.6 3425 1013 3385.5 1013 3332.8V3240.5L933 3161.6L853 3082.7V2942.5V2802.3L930.9 2725.4L1008.8 2648.5L1008.9 2549.7C1008.9 2495.4 1008.7 2451 1008.3 2451.1C1007.8 2451.1 941.7 2516.2 861.3 2595.7Z" fill="white"/>
<path d="M231.3 3384.3L163.1 3451.5V3660.5L163 3869.4L180.8 3851.9C190.5 3842.3 221.3 3811.9 249.3 3784.2L300 3734.1L299.8 3525.6L299.5 3317.1L231.3 3384.3Z" fill="white"/>
<path d="M715 3526.3V3734.6L783.8 3802.5L852.5 3870.5L852.8 3662L853.1 3453.5L784.8 3385.8C747.2 3348.6 716.2 3318.1 715.8 3318C715.3 3318 715 3411.7 715 3526.3Z" fill="white"/>
</svg>
