<svg width="1046" height="4491" viewBox="0 0 1046 4491" fill="none" xmlns="http://www.w3.org/2000/svg">
<path d="M488.8 37.6997L452 73.3997V946.9V1820.5L237 2028C118.7 2142.1 19.7 2237.6 17 2240.2L12 2244.9L232 2457.2L452 2669.4V3543V4416.5L488.9 4452.2L525.7 4487.8L562.3 4452.7L598.9 4417.5V3543.8L599 2670.1L818.8 2458C939.6 2341.4 1038.6 2245.6 1038.8 2245.2C1038.9 2244.8 940 2148.9 819 2032.1L599 1819.8V946.2L598.9 72.4997L562.9 37.4997C543 18.1997 526.5 2.39974 526.1 2.29974C525.8 2.19974 509 18.1997 488.8 37.6997ZM684 2086.9C772 2171.8 843.9 2241.7 843.8 2242.1C843.3 2243.6 524.1 2551 523.1 2551C522.1 2551 202.7 2243.5 202.2 2242C201.8 2241 522.1 1931.9 523.2 1932.2C523.6 1932.4 596 2002 684 2086.9Z" fill="white"/>
<path d="M182 896.8V1097.8L244.3 1156.1C278.5 1188.2 309.8 1217.5 313.8 1221.4L321 1228.3V1028.8V829.2L253.8 764.4C216.8 728.7 185.6 698.7 184.3 697.7L182 695.9V896.8Z" fill="white"/>
<path d="M799.8 772.599L731 839.099V1038.1C731 1147.6 731.4 1237 731.8 1236.8C732.3 1236.6 763.5 1207.5 801.3 1172.1L870 1107.6V906.799C870 796.399 869.7 705.999 869.3 706.099C868.8 706.099 837.6 735.999 799.8 772.599Z" fill="white"/>
<path d="M161.8 1449.7L161.5 1622.7L101.5 1564.7C68.5 1532.9 32.6 1498.2 21.8 1487.8L2 1468.8V1563.1V1657.5L53.3 1706.9C81.4 1734.1 104.6 1756.6 104.7 1756.9C104.9 1757.2 81.8 1779.8 53.6 1807L2.1 1856.5V1951.5L2 2046.5L10.8 2037.9C15.6 2033.2 46.1 2003.7 78.5 1972.4C111 1941.1 174.3 1880 219.3 1836.6L301 1757.8V1581.9V1406.1L232.4 1341.8C194.6 1306.4 163.3 1277.4 162.9 1277.2C162.4 1277 161.9 1352.7 161.8 1449.7Z" fill="white"/>
<path d="M813.8 1341.3L745.1 1405.5V1581.6L745 1757.7L756.8 1769.2C769.4 1781.6 952.5 1958.4 1009 2012.8L1043.5 2046L1043.8 1951.8L1044.1 1857.5L1027.3 1841.1C1018.1 1832.1 994.9 1809.6 975.8 1791.2C956.6 1772.8 941 1757.4 941 1757.1C941 1756.8 964.2 1734.2 992.5 1707L1043.9 1657.5L1044 1563V1468.6L1036.8 1475.6C1032.8 1479.5 1004.1 1507.1 973 1537C941.9 1566.9 909.2 1598.6 900.3 1607.4L884 1623.5V1450.2C884 1355 883.7 1277 883.3 1277C882.8 1277.1 851.6 1306 813.8 1341.3Z" fill="white"/>
<path d="M9.1 2540.5V2635.5L60.6 2685L112 2734.5L103.8 2742.5C99.2 2746.9 82 2763.5 65.5 2779.5C49 2795.4 29.5 2814.2 22.2 2821.3L9 2834.2L9.2 2928.2L9.5 3022.1L89 2945.4L168.5 2868.8L169 3041.9L169.5 3215L238.7 3150.3L307.9 3085.5V2909.9L308 2734.3L196.8 2626.9C135.6 2567.8 72.2 2506.7 56 2491.1C39.8 2475.4 22.6 2458.8 17.8 2454.1L9 2445.5L9.1 2540.5Z" fill="white"/>
<path d="M910 2572.6C837.7 2642.4 770.5 2707.1 760.8 2716.5L743.1 2733.5V2909.6L743 3085.6L811.7 3150.1C849.5 3185.5 880.7 3214.6 881.2 3214.8C881.6 3215 882.1 3137.3 882.2 3042.2L882.5 2869.1L908 2893.8C922.1 2907.4 958 2942 987.8 2970.8L1042 3023.1V2928.6V2834.2L992.3 2786.2C964.9 2759.9 941.7 2737.4 940.7 2736.3C939 2734.3 939.8 2733.5 979.7 2694.9C1002.1 2673.2 1025.3 2650.8 1031.3 2645L1042.1 2634.5L1041.8 2540.1L1041.5 2445.7L910 2572.6Z" fill="white"/>
<path d="M246.5 3305.1C211.3 3338.1 180.1 3367.4 177.2 3370.3L172 3375.5L172.2 3576.4L172.5 3777.3L241.8 3710.5L311 3643.6V3444.3C311 3334.7 310.9 3245 310.8 3245C310.6 3245.1 281.7 3272.1 246.5 3305.1Z" fill="white"/>
<path d="M740.1 3454.2V3653.5L797.1 3708.5C828.5 3738.7 859.7 3768.8 866.6 3775.3L879 3787.2V3585.8V3384.5L814.4 3324C778.9 3290.7 747.6 3261.6 744.9 3259.2L740 3254.8L740.1 3454.2Z" fill="white"/>
</svg>
