<svg width="1433" height="4483" viewBox="0 0 1433 4483" fill="none" xmlns="http://www.w3.org/2000/svg">
<g clip-path="url(#clip0_40_26)">
<path d="M570.8 72.6999L498 145.5V944.5V1743.5L249 1992.5L0 2241.5L249 2490.5L498 2739.5V3538.5V4337.5L570.3 4409.8C610 4449.5 642.8 4482 643.3 4482C643.7 4482 644 4076.9 644 3581.7V2681.5L480.4 2518C390.5 2428.1 291.6 2328.9 260.8 2297.7L204.6 2240.9L424.3 2021.2L644 1801.5L643.8 900.7L643.5 -6.6787e-05L570.8 72.6999Z" fill="white"/>
<path d="M789 900.5V1801.5L1009 2021.5L1229 2241.5L1010 2460.5L791 2679.5V3581V4482.5L864 4409.5L937 4336.5V3537.5V2738.5L1185 2490.5C1321.4 2354.1 1433 2242.1 1433 2241.5C1433 2240.9 1321.2 2128.7 1184.5 1992L936 1743.5V945V146.5L862.5 72.9999L789 -0.500067V900.5Z" fill="white"/>
<path d="M287.3 847.2L216 918.5V1171.8C216 1311 216.3 1425 216.8 1425C217.2 1425 249.3 1393.2 288.3 1354.2L359 1283.5L358.8 1029.7L358.5 776L287.3 847.2Z" fill="white"/>
<path d="M1073 1029.5V1283.5L1143.8 1354.3C1182.7 1393.2 1214.8 1425 1215.3 1425C1215.7 1425 1216 1311 1216 1171.7V918.5L1144.5 847L1073 775.5V1029.5Z" fill="white"/>
<path d="M1073 1584.5V1685.5L1252.5 1865L1432 2044.5V1943.5V1842.5L1252.5 1663L1073 1483.5V1584.5Z" fill="white"/>
<path d="M179.2 1665.2L0 1844.5V1945V2045.5L179.5 1866L359 1686.5L358.8 1586.2L358.5 1486L179.2 1665.2Z" fill="white"/>
<path d="M555.5 2080L395.5 2240L556 2400.5L716.5 2561L876.2 2401.3C964.1 2313.4 1036 2241.1 1036 2240.5C1036 2239.5 717 1920 716 1920C715.7 1920 643.5 1992 555.5 2080Z" fill="white"/>
<path d="M1252.3 2617.2L1073 2796.5V2897.5V2998.5L1252.5 2819L1432 2639.5L1431.8 2538.7L1431.5 2438L1252.3 2617.2Z" fill="white"/>
<path d="M0 2539.5V2640.5L179.5 2820L359 2999.5V2898.5V2797.5L179.5 2618L0 2438.5V2539.5Z" fill="white"/>
<path d="M216 3308.3V3561.5L287.5 3633L359 3704.5V3450.5V3196.5L288.2 3125.7C249.3 3086.8 217.2 3055 216.7 3055C216.3 3055 216 3169 216 3308.3Z" fill="white"/>
<path d="M1143.7 3125.8L1073 3196.5V3451V3705.5L1144.5 3634L1216 3562.5V3308.7C1216 3169.2 1215.7 3055 1215.2 3055C1214.8 3055 1182.7 3086.8 1143.7 3125.8Z" fill="white"/>
</g>
<defs>
<clipPath id="clip0_40_26">
<rect width="1433" height="4483" fill="white"/>
</clipPath>
</defs>
</svg>
