<svg width="1583" height="4492" viewBox="0 0 1583 4492" fill="none" xmlns="http://www.w3.org/2000/svg">
<g clip-path="url(#clip0_40_39)">
<path d="M578 881.5V1763.5L483.2 1858.3L388.5 1953L293.5 1858L198.5 1763H99.1001H-0.399902L127.1 1890.7C197.2 1961 284.2 2048.5 320.4 2085.2C356.7 2122 386.8 2152 387.4 2152C388 2152 463.1 2077.4 554.3 1986.2L720 1820.5V981V141.5L649 70.5L578 -0.500032V881.5Z" fill="white"/>
<path d="M933.8 70.7L863 141.5V980.5V1819.5L1029.5 1986L1196 2152.5L1237.3 2111C1259.9 2088.2 1347 2000.5 1430.8 1916.2L1583.2 1763H1483.8H1384.5L1289.5 1858L1194.5 1953L1099.8 1858.3L1005 1763.5L1004.8 881.7L1004.5 -3.20747e-05L933.8 70.7Z" fill="white"/>
<path d="M193.5 1574C300.2 1680.7 388 1768 388.5 1768C389.1 1768 410.7 1746.8 436.5 1721L483.5 1674L336.5 1527L189.5 1380H94.5H-0.5L193.5 1574Z" fill="white"/>
<path d="M1246.7 1526.8L1100 1673.5L1147.5 1721L1195 1768.5L1389.3 1574.2L1583.5 1380H1488.5H1393.5L1246.7 1526.8Z" fill="white"/>
<path d="M636.2 2089.3C550.9 2174.6 481 2245 481 2245.5C481 2246.1 550.9 2316.4 636.3 2401.8L791.5 2557L947.3 2401.2L1103 2245.5L947.2 2089.7L791.5 1934L636.2 2089.3Z" fill="white"/>
<path d="M321.9 2405.2C286.5 2441.1 199.5 2528.7 128.6 2599.7L-0.399902 2729H99.1001H198.5L293.5 2634L388.5 2539L483.7 2634.2L579 2729.5V3609.5V4489.5L649.5 4419L720 4348.5V3510V2671.5L554.2 2505.7C463.1 2414.6 388 2340 387.4 2340C386.8 2340 357.4 2369.4 321.9 2405.2Z" fill="white"/>
<path d="M1029.2 2506.3L863 2672.5V3511.5V4350.5L934 4421.5L1005 4492.5V3610.5V2728.5L1099.8 2633.7L1194.5 2539L1289.5 2634L1384.5 2729H1484H1583.5L1484.4 2629.7C1430 2575.2 1342.9 2487.6 1291.1 2435.2C1239.2 2382.9 1196.5 2340 1196.1 2340C1195.8 2340 1120.7 2414.8 1029.2 2506.3Z" fill="white"/>
<path d="M194 2917.5L-0.5 3112H94.5H189.5L336.5 2965L483.5 2818L436 2770.5L388.5 2723L194 2917.5Z" fill="white"/>
<path d="M1147.2 2771.3L1100 2818.5L1246.8 2965.3L1393.5 3112H1488.5H1583.5L1389.5 2918C1282.8 2811.3 1195.3 2724 1195 2724C1194.7 2724 1173.2 2745.3 1147.2 2771.3Z" fill="white"/>
</g>
<defs>
<clipPath id="clip0_40_39">
<rect width="1583" height="4492" fill="white"/>
</clipPath>
</defs>
</svg>
