<?xml version="1.0" standalone="no"?>
<!DOCTYPE svg PUBLIC "-//W3C//DTD SVG 20010904//EN"
 "http://www.w3.org/TR/2001/REC-SVG-20010904/DTD/svg10.dtd">
<svg version="1.0" xmlns="http://www.w3.org/2000/svg"
 width="300.000000pt" height="300.000000pt" viewBox="0 0 300.000000 300.000000"
 preserveAspectRatio="xMidYMid meet">

<g transform="translate(0.000000,300.000000) scale(0.100000,-0.100000)"
fill="#fff" stroke="none">
<path d="M658 2990 c-123 -10 -186 -24 -273 -65 -197 -90 -320 -251 -362 -473
-17 -89 -18 -165 -18 -957 0 -906 1 -924 46 -1062 28 -85 103 -197 175 -261
68 -62 188 -123 289 -149 65 -17 138 -18 980 -18 827 0 917 2 985 17 234 54
417 225 480 448 32 116 37 272 30 1160 -7 905 -3 859 -77 1010 -50 104 -169
223 -273 273 -99 48 -170 66 -315 77 -138 11 -1522 11 -1667 0z m1520 -477 c9
-13 12 -188 12 -797 l0 -781 -29 -61 c-36 -75 -86 -118 -170 -144 -74 -23
-187 -26 -234 -7 -111 47 -172 178 -133 286 38 105 102 147 291 190 71 16 134
36 143 45 15 15 17 58 20 386 2 249 -1 377 -8 390 -6 11 -21 20 -33 20 -24 0
-739 -142 -806 -160 -29 -8 -42 -17 -46 -33 -3 -12 -6 -267 -8 -567 -3 -589
-1 -572 -59 -657 -35 -53 -94 -87 -178 -107 -120 -29 -192 -17 -261 43 -54 46
-79 100 -79 175 0 100 49 174 145 217 22 10 85 27 140 39 121 25 153 37 165
61 6 11 10 247 10 601 0 374 4 596 11 621 5 20 20 44 32 51 30 19 1006 217
1037 210 14 -3 31 -12 38 -21z"/>
</g>
</svg>
