<svg id="Layer_1" data-name="Layer 1" xmlns="http://www.w3.org/2000/svg" viewBox="0 0 249.36 249.36"><defs><style>.cls-1{fill:#fff;}</style></defs><path class="cls-1" d="M151.72,166.91c-1.29,1-9.84,7.84-26.22,8.16s-25.55-7.42-27-8.1a3.45,3.45,0,0,0-4.33.77,3.15,3.15,0,0,0,.77,4.54c9.51,6.44,16.67,9.27,30.94,9.21a51.28,51.28,0,0,0,29.8-9.47c1.73-1.16.9-3.6.19-4.47A3.22,3.22,0,0,0,151.72,166.91Z"/><circle class="cls-1" cx="153.77" cy="138.24" r="12.47"/><circle class="cls-1" cx="95.67" cy="137.54" r="12.47"/><path class="cls-1" d="M124.68,0A124.68,124.68,0,1,0,249.36,124.68,124.68,124.68,0,0,0,124.68,0Zm72.88,142.07a35.76,35.76,0,0,1,.43,5.49C198,175.39,165.3,198,125,198s-73-22.56-73-50.39a35.34,35.34,0,0,1,.52-6A18.25,18.25,0,1,1,73,112.19c12.45-8.71,29.46-14.32,48.36-15L130.12,55s.48-2.84,1.59-4c1.41-1.46,4.15-1,4.15-1l30.19,6.07a12.26,12.26,0,1,1-1.68,7.31l-27-5.39-8.13,39.23C148,98,165,103.67,177.29,112.42a18.25,18.25,0,1,1,20.27,29.65Z"/></svg>