<svg id="Layer_1" data-name="Layer 1" xmlns="http://www.w3.org/2000/svg" viewBox="0 0 209.49 213.46"><defs><style>.cls-1{fill:#fff;}</style></defs><path class="cls-1" d="M82,3.85C76.17,13.28,3.64,139.34,1.31,144s-1.65,9.91,2.91,10,43.61.19,45.94.19,3.6-.58,5.25-3.3,25.67-44.14,27.1-46.53c2.79-4.66,7.67-4.66,9.61-.58,2,4.28,27.29,48,28.65,50.8s2.07,8-5,8.06-47.55,0-50.27-.07c-4.8-.08-6,2-7.55,4.54s-19.77,33.69-21.46,36.32c-2.67,4.16-3.18,9.47,3.37,9.55,4.79,0,159.51.56,163,.46s9.61-3.89,5-11.46S94.46,7.3,92.7,4.33C89.3-1.4,85.22-1.32,82,3.85Z"/></svg>