<svg id="Layer_1" data-name="Layer 1" xmlns="http://www.w3.org/2000/svg" viewBox="0 0 529.35 842.6"><defs><style>.cls-1{fill:#f1f1f1;}.cls-2{fill:none;stroke:#000;stroke-width:0.5px;}</style></defs><polygon class="cls-1" points="398.81 130.74 529.35 290.87 466.59 297.88 456.13 509.68 403.94 481.34 311.9 614.7 290.56 577.67 248.72 607.9 300.6 438.98 276.34 281.88 130.22 201.55 92.36 0 459.27 93.92 398.81 130.74"/><polygon class="cls-1" points="452.68 692.72 274.04 791.25 278.95 842.6 115.68 725.04 77.82 757.78 49.68 570.24 0 567.73 114.53 394.63 64.22 365.76 260.65 306.14 280.94 437.83 220.9 627.87 222.99 669.29 262.43 713.12 452.68 692.72"/><path class="cls-2" d="M700,700" transform="translate(-435.32 -278.71)"/><path class="cls-2" d="M700,700" transform="translate(-435.32 -278.71)"/></svg>