<svg width="2607" height="533" viewBox="0 0 2607 533" fill="none" xmlns="http://www.w3.org/2000/svg">
<path d="M2081.7 1.50003C2079.8 3.30003 2080.4 5.50003 2084.7 13.7C2086.5 17.3 2088 21.2 2088 22.4C2088 23.7 2088.9 25.5 2090 26.5C2091.1 27.5 2092 29.3 2092 30.4C2092 31.6 2092.6 33.4 2093.4 34.5C2094.1 35.6 2094.7 37.2 2094.7 38C2094.7 39.8 2103.1 52.8 2106 55.5C2107.3 56.7 2107.8 58.1 2107.5 59.6C2107.2 60.9 2106.8 63 2106.5 64.3C2106.3 65.6 2104.9 67.2 2103.6 67.8C2102.2 68.4 2100.2 70.8 2099.1 73.2C2098 75.6 2096.2 78.4 2095.1 79.4C2093.9 80.5 2093 82 2093 82.7C2093 83.5 2090.1 87.1 2086.5 90.7C2082.9 94.3 2080 97.7 2080 98.4C2080 99.8 2064.9 115 2063.4 115C2062.9 115 2060.2 117.2 2057.5 120C2054.8 122.7 2052.1 125 2051.5 125C2050.5 125 2046.3 128.2 2040 133.7C2036 137.2 2031.7 138 2027.7 135.8C2025.1 134.5 2020 129.2 2020 127.9C2020 127.4 2018.7 127 2017 127C2015.1 127 2013.7 126.3 2013 125C2012.4 123.9 2010.9 123 2009.7 123C2008.5 123 2006.9 122.1 2006.2 121C2005.5 119.9 2004.4 119 2003.7 119C2002.9 119 2000.9 117.4 1999.1 115.5C1997.4 113.6 1995.3 112 1994.6 112C1993.9 112 1992.7 111.4 1992.1 110.6C1991.4 109.8 1989.1 108.3 1986.9 107.2C1983.4 105.5 1982.7 105.4 1981.5 106.7C1980.6 107.5 1980 110 1980 112.5C1980 115.9 1980.7 117.8 1983.5 121.5C1985.5 124 1987.4 127.5 1987.7 129.3C1988 131.1 1989.1 133.6 1990.2 134.9C1991.2 136.2 1992 138 1992 138.9C1992 139.8 1992.6 141.4 1993.4 142.5C1994.1 143.6 1995 145.6 1995.3 147C1995.6 148.4 1997 152.3 1998.4 155.7C2000.5 160.6 2000.8 162.4 2000 163.9C1999.5 165 1999 166.6 1999 167.5C1999 168.4 1997.2 171 1994.9 173.3C1989.8 178.6 1984 187.1 1984 189.4C1984 191 1980 196.6 1974.8 202.4C1973.7 203.6 1973 206 1973 208.7V213H1976.9C1979.3 213 1981.7 212.2 1983.4 210.9C1985 209.6 1986.7 209.1 1988 209.5C1989.5 210 1990.2 209.5 1991 207.6C1991.8 205.5 1992.6 205 1995.3 205C1997.2 205 1999.9 204.1 2001.3 203C2002.7 201.9 2004.1 201 2004.5 201C2004.8 201 2008 199 2011.6 196.5C2015.1 194 2019.8 191.3 2021.9 190.4C2025.7 188.9 2025.9 188.9 2030.2 191.7C2032.5 193.2 2035.7 195 2037.1 195.6C2038.5 196.2 2042 199.5 2045 202.9C2047.9 206.2 2052.5 210.4 2055.1 212.1C2057.8 213.8 2060 215.6 2060 216.2C2060 216.7 2063 220.4 2066.8 224.5C2070.5 228.6 2075.8 234.7 2078.5 238C2081.3 241.3 2085.8 246.5 2088.5 249.6C2091.3 252.8 2094.5 256.5 2095.7 257.9C2096.9 259.3 2100.2 263 2103 266.1C2105.7 269.2 2108 272 2108 272.5C2108 272.9 2111 276.3 2114.6 280C2118.2 283.7 2121.8 287.8 2122.7 289.1C2123.6 290.4 2126.5 293.9 2129.2 296.8C2131.8 299.8 2134 302.7 2134 303.3C2134 304 2137.1 307.9 2141 312C2144.8 316.1 2148 319.9 2148 320.4C2148 321 2149.1 322.5 2150.4 323.9C2151.8 325.4 2154 328.1 2155.4 330C2156.8 331.9 2159.1 335.1 2160.5 337C2161.9 338.9 2164.6 342.5 2166.5 345C2168.4 347.5 2171.6 352 2173.7 355C2175.8 358 2180.3 364.1 2183.7 368.5C2187.1 372.9 2190.8 377.6 2191.8 379L2193.8 381.5L2190.9 385C2189.3 386.9 2186.8 390.7 2185.4 393.4C2184 396.1 2180.4 400.8 2177.4 403.8C2174.4 406.8 2172 409.9 2172 410.7C2172 411.4 2171.4 412 2170.6 412C2169.8 412 2166.9 414.1 2164.2 416.7C2161.5 419.4 2157.9 422.3 2156.4 423.2C2151.9 425.9 2149.9 427.2 2145.1 430.8C2139.9 434.6 2138.3 434.4 2132.5 429.1C2130.3 427.1 2126.9 424.6 2125 423.6C2123.1 422.5 2119.2 419.5 2116.3 416.8C2113.5 414.2 2110.7 412 2110.1 412C2109.5 412 2106.4 409.5 2103.3 406.5C2100.1 403.5 2096.9 401 2096.2 401C2095.5 401 2092.4 398.6 2089.2 395.7C2086 392.8 2081.3 389.3 2078.6 388.1C2076 386.8 2073.6 385 2073.3 384.1C2073.1 383.2 2072.4 381.8 2071.9 381C2069.8 377.7 2069.9 376.9 2072.9 372.5C2074.6 370 2076 367.6 2076 367.3C2076 367 2077.1 365.5 2078.5 363.9C2080.3 361.7 2080.8 360.2 2080.4 358.1C2080 356.1 2080.4 354.7 2081.8 353.4C2082.8 352.3 2084 349.8 2084.4 347.8C2085 344.7 2084.8 344.1 2083 343.5C2081.7 343.1 2079.4 343.6 2077 344.9C2072.5 347.2 2070 347.8 2061.7 348.7C2057.9 349.1 2055.5 349.9 2054.7 351C2053.1 353.3 2042.8 354.5 2039.7 352.8C2036.5 351 2030.8 349 2028.8 349C2027.8 349 2026.3 347.8 2025.3 346.4C2024.4 344.9 2022.1 343.1 2020.3 342.3C2018.4 341.6 2015.5 339.6 2013.8 337.9C2012.1 336.3 2009.5 334.7 2008.2 334.3C2006.9 334 2003.5 332.2 2000.7 330.4C1995 326.6 1988.2 325 1986.9 327.1C1985.7 328.9 1986.7 333.8 1988.8 336.9C1989.8 338.2 1991 340 1991.5 340.9C1992.1 341.7 1994 344.4 1995.8 346.9C1997.5 349.3 1999 352 1999 352.9C1999 353.8 2000.7 356.4 2002.8 358.6C2007.8 364.3 2009.7 366.8 2012.7 371.8C2015.8 377 2015 380.3 2009.6 385.1C2007.1 387.3 2006 389.1 2006 391C2006 392.5 2005.3 394.3 2004.5 395C2003.7 395.7 2003 397.6 2003 399.3C2003 401.6 2001.9 403.5 1999.1 406.5C1992.2 413.6 1993.1 421.1 2001 421.1C2006.3 421.2 2017.2 419 2019.7 417.4C2020.9 416.6 2022.8 416 2023.9 416C2025 416 2028 414.6 2030.5 412.9L2035.1 409.8L2040 413.9C2042.7 416.2 2045.3 418 2045.7 418C2046.2 418 2047.9 419.4 2049.6 421.1C2051.2 422.8 2053.7 424.8 2055.3 425.6C2056.8 426.4 2058 427.6 2058 428.3C2058 429.9 2066.1 438 2067.7 438C2069.4 438 2075 443 2077 446.3C2078 447.9 2080.2 450.9 2081.9 452.9C2087.5 459.5 2094.6 468.5 2097 471.9C2099 474.8 2099.1 475.6 2098.1 477.3C2097.4 478.4 2096.7 480.7 2096.5 482.4C2096 487.1 2091.3 504.9 2090.2 506.3C2089.6 506.9 2089 509.1 2088.8 511C2088.5 514.5 2088.6 514.5 2093.2 515.4C2097.1 516.2 2098.3 516 2099.8 514.7C2100.8 513.7 2102.1 513 2102.7 513C2103.2 513 2104.5 512.1 2105.5 511C2106.5 509.9 2108.1 509 2109 509C2110 509 2111.9 508.1 2113.3 507C2114.7 505.9 2116.7 505 2117.8 505C2118.8 505 2120.5 504.1 2121.5 503C2123.8 500.5 2126.1 500.5 2129.3 503C2130.7 504.1 2132.5 505 2133.3 505C2134.1 505 2135.3 505.7 2136.1 506.6C2137.7 508.5 2143.4 511.5 2147.5 512.4C2149.2 512.8 2151.2 513.7 2152 514.4C2154.4 516.5 2164.1 517.2 2166.4 515.5C2168.1 514.2 2168.1 513.7 2167 510.8C2166.2 509 2164.8 506.7 2163.8 505.7C2162.8 504.7 2162 502.9 2162 501.6C2162 500.3 2161.1 498.5 2160 497.5C2158.9 496.5 2158 494.9 2158 494C2158 493 2157.3 491.7 2156.5 491C2155.7 490.3 2155 489.2 2155 488.6C2155 488 2154.3 486.2 2153.5 484.6C2152.7 483 2152.1 481.2 2152.2 480.6C2152.2 480 2152 478.3 2151.6 476.8C2151 474.7 2151.5 472.9 2153.9 468.7C2155.6 465.7 2157.7 462.7 2158.5 462C2159.3 461.3 2160 460.2 2160 459.5C2160 458.9 2160.9 457.5 2162 456.5C2163.1 455.5 2164 454 2164 453.1C2164 451.1 2200.6 413 2202.4 413C2203.1 413 2204.7 411.8 2206.1 410.4C2207.4 408.9 2210.9 405.9 2213.9 403.6C2223.5 396.2 2222.6 396.6 2225.2 398.4C2226.4 399.3 2228.2 400 2229.2 400C2230.1 400 2231.5 400.6 2232.2 401.3C2232.9 402 2235.5 403.2 2238 403.9C2242.9 405.3 2247.3 407.1 2253.5 410.1C2255.7 411.1 2258.2 412 2259 412C2259.9 412 2261.5 412.6 2262.5 413.4C2263.6 414.2 2267.2 414.9 2270.5 415.1C2276.2 415.5 2276.5 415.4 2276.8 413.2C2277 411.9 2276.3 409.8 2275.3 408.7C2274.2 407.5 2272.5 404.8 2271.4 402.7C2270.4 400.6 2268.7 398.2 2267.8 397.3C2266.8 396.4 2266 394.7 2266 393.6C2266 391 2262.7 384.7 2260 382C2258.9 380.9 2258 379.1 2258 378C2258 377 2257.4 375.7 2256.7 375.3C2255.2 374.4 2253.5 370.2 2252.5 365.3C2252 362.6 2252.4 361.3 2255.4 357.4C2257.4 354.8 2259.5 351 2260 349C2260.6 346.9 2262.1 343.6 2263.5 341.6C2264.9 339.6 2266 336.7 2266 335.1C2266 333.6 2266.8 331.5 2267.9 330.6C2270.2 328.5 2271.6 321 2269.8 319.9C2269.1 319.5 2267.5 320.1 2265.9 321.3C2263 323.7 2257.3 327.4 2249.3 332C2248.3 332.6 2246.8 333.3 2246 333.6C2245.2 333.9 2243.4 334.7 2242 335.5C2232.9 340.6 2227.8 343 2226.1 343C2225 343 2221.2 340.2 2217.7 336.7C2209.2 328.7 2202.5 323 2201.3 323C2200.8 323 2198.9 321.4 2197 319.5C2195.1 317.6 2193.1 316 2192.5 316C2190.7 316 2170 293.3 2170 291.3C2170 290.7 2169 289.2 2167.7 287.8C2163.5 283.3 2158 276.3 2158 275.5C2158 275.1 2156.1 272.6 2153.8 270C2149.7 265.4 2147.3 262.4 2144 257.5C2141.2 253.4 2132.5 242.6 2130.3 240.4C2129 239.2 2128 237.8 2128 237.3C2128 236.8 2126.7 235.1 2125 233.5C2123.4 231.9 2122 230.2 2122 229.7C2122 229.2 2120.5 227 2118.8 224.9C2112.1 217 2110 214.2 2110 213.2C2110 212.6 2109.4 211.7 2108.7 211.3C2107.9 210.9 2105.5 208 2103.3 205C2101.1 202 2098.1 198.4 2096.6 197.1C2095.2 195.7 2094 194.1 2094 193.5C2094 192.8 2093.1 191.5 2092.1 190.6C2091.1 189.7 2089.9 186.8 2089.5 184.3C2089.1 181.7 2087.8 177.6 2086.5 175.1C2084.2 170.5 2079.7 160.7 2076.7 153.8C2075 149.9 2075 149.8 2079.1 142C2079.6 141.2 2082.2 135.9 2085 130.4C2087.8 124.8 2091 119.4 2092.1 118.5C2093.1 117.5 2094 116.1 2094 115.4C2094 113.8 2121.2 86.1 2125.3 83.5C2128.2 81.7 2128.2 81.7 2130.5 84.6C2131.9 86.2 2132.9 87.9 2133 88.4C2133 88.9 2136.2 92.8 2140 97.1C2143.9 101.3 2147 105.1 2147 105.5C2147 105.9 2151.1 110.6 2156 115.9C2161 121.3 2165 126.1 2165 126.7C2165 127.2 2166.6 129.2 2168.6 131.1C2170.6 132.9 2174.1 137 2176.5 140C2178.8 143 2183.3 147.5 2186.4 150C2192.5 154.9 2193.1 156.8 2190 160.7C2188.9 162.1 2188 164.7 2188 166.5C2188 168.3 2187.3 170.4 2186.4 171.1C2184.6 172.6 2179 183.9 2176.7 190.7C2175.7 193.8 2175.6 195 2176.4 195.1C2179.8 195.4 2185.6 194.7 2186.5 193.9C2187 193.4 2188.3 193 2189.5 193C2190.7 193 2192.5 192.3 2193.6 191.5C2194.6 190.7 2196.1 190 2196.8 190C2197.5 190 2200.6 188.4 2203.6 186.5C2206.6 184.6 2209.5 183 2210.1 183C2210.7 183 2211.8 182.3 2212.6 181.5C2215 179.1 2226.4 179.2 2229.1 181.6C2230 182.4 2232.8 183 2235.6 183C2238.3 183 2241.4 183.7 2242.4 184.5C2244.5 186.1 2253 185.5 2254.2 183.6C2255.5 181.6 2255 176.3 2253.4 174.9C2252.5 174.2 2252 172.7 2252.3 171.3C2252.5 170 2252.1 168.5 2251.4 167.9C2250.6 167.3 2250 165.6 2250 164.2C2250 162.8 2249.3 160.9 2248.4 159.9C2246.4 157.7 2245.3 149.5 2246.9 148.6C2247.5 148.2 2248 146.6 2248 145.1C2248 143.5 2248.7 141.7 2249.5 141C2250.3 140.3 2251 138.7 2251 137.4C2251 136.1 2251.9 133.3 2253 131.3C2254.7 128.1 2254.8 127.3 2253.6 125.5C2251.7 122.6 2245.5 122.2 2243.8 124.9C2242.9 126.4 2241.5 127 2239.2 127C2237.3 127 2234.5 127.8 2232.9 128.7C2230.3 130.3 2230 130.3 2228.2 128.7C2227 127.6 2224.7 127 2221.8 127C2218.4 127 2217.1 126.6 2216.4 125.1C2215.9 124.1 2212.1 119.5 2208 115C2203.9 110.5 2200.3 106.3 2200.1 105.6C2199.9 105 2198.5 103.1 2197.1 101.3C2195.7 99.6 2193 96.2 2191.3 93.7C2186 86.6 2176.4 76 2175.2 76C2174.8 76 2172.8 74.4 2170.7 72.5C2168.6 70.6 2164.8 68 2162.2 66.9C2158.1 65 2154 61.7 2154 60.2C2154 59.5 2160.6 51.2 2164.1 47.5C2171.7 39.4 2176.3 32.1 2175.4 29.6C2175.1 28.8 2175.5 27.3 2176.4 26.5C2178.1 24.8 2178.5 20.3 2177.2 18.3C2175.7 15.9 2157.1 17 2154.9 19.6C2154.3 20.4 2152.9 21 2151.9 21C2150.8 21 2150 21.4 2150 22C2150 22.5 2149.3 23 2148.5 23C2147.6 23 2145.9 24 2144.6 25.2C2141.5 28.4 2134.6 33 2133.2 33C2132.5 33 2131 32.1 2129.8 31C2128.7 30 2126.3 28.4 2124.5 27.6C2122.7 26.7 2120.7 25.4 2120 24.5C2119.3 23.7 2118.1 23 2117.3 23C2116.5 23 2113.4 20.5 2110.4 17.5C2106.9 14 2104.1 12 2102.6 12C2101.3 12 2099.1 11.1 2097.7 10C2096.3 8.90003 2094.9 8.00003 2094.5 8.00003C2094.1 8.00003 2091.6 6.20003 2089 4.00003C2083.6 -0.499969 2083.7 -0.499969 2081.7 1.50003Z" fill="white"/>
<path d="M167.1 1.90001C165.9 2.70001 165.8 3.30001 166.8 5.50001C167.4 6.90001 168.7 8.30001 169.5 8.60001C170.5 9.00001 171 10.6 171 13.5C171 16.4 171.6 18.2 173 19.5C174.1 20.5 175 21.8 175 22.3C175 23.9 179.2 32.3 180.7 33.8C181.4 34.5 182 36.1 182 37.2C182 38.3 182.9 40.3 184 41.7C185.1 43.1 186 45.3 186 46.6C186 47.9 186.9 50.7 188 52.7C189.1 54.8 190 57 190 57.6C190 58.2 190.7 59.3 191.5 60C193.6 61.7 193.4 66.3 191 69.3C189.9 70.7 189 72.5 189 73.4C189 74.3 188.6 75 188.1 75C187.6 75 186.8 76 186.5 77.2C186.1 78.5 184.7 80.6 183.5 82C182.2 83.4 181 85.3 180.8 86.2C180.7 87.1 176.2 92.3 171 97.7C165.7 103.1 159.5 109.7 157.1 112.5C154.7 115.2 149.3 121.1 145.1 125.5C140.9 129.9 133.6 137.8 129 143C124.3 148.2 120.3 152.7 120 153C118.3 154.7 98.7999 176.7 93.8999 182.5C91.9999 184.7 90.1999 186.7 89.8999 187C89.5999 187.3 85.8999 191.8 81.5999 197C74.4999 205.6 70.4999 210.4 62.7999 219.5L60.1999 222.4L56.3999 220.5C54.1999 219.4 49.0999 215.5 44.9999 211.9C40.8999 208.2 36.4999 205 35.1999 204.6C33.9999 204.2 31.5999 202.1 29.7999 199.9C28.0999 197.8 25.8999 196 24.9999 196C23.9999 196 21.2999 194.2 18.8999 191.9C16.4999 189.7 12.8999 187 10.9999 186C9.09987 185 6.49987 183.6 5.29987 182.9C-0.50013 179.8 -1.70013 185.5 3.29987 192.2C5.09987 194.6 7.09987 197.8 7.79987 199.4C8.49987 201 10.2999 203.7 11.5999 205.4C16.5999 211.5 21.9999 219.4 21.9999 220.6C21.9999 221.4 22.7999 222.4 23.8999 222.9C24.8999 223.5 25.9999 225.2 26.2999 226.7C26.5999 228.2 28.4999 231.2 30.4999 233.3C32.3999 235.4 33.9999 237.6 33.9999 238.2C33.9999 238.8 35.5999 241.5 37.4999 244.1C41.4999 249.7 41.6999 251 39.0999 253.4C37.9999 254.4 37.3999 255.9 37.6999 256.9C37.9999 258 37.3999 259.3 36.1999 260.1C34.0999 261.6 29.9999 269 29.9999 271.4C29.9999 273.9 21.2999 289.1 18.9999 290.5C18.4999 290.8 17.9999 292.2 17.9999 293.5C17.9999 294.8 17.4999 296.2 16.9999 296.5C15.3999 297.5 11.8999 304.8 11.4999 307.8C11.3999 309.3 11.1999 310.8 11.0999 311.2C11.0999 311.6 10.0999 312.2 8.99987 312.5C7.59987 312.9 6.99987 314 6.99987 315.9C6.99987 317.4 6.49987 319.1 5.79987 319.8C4.39987 321.2 1.99987 328.1 2.59987 329.1C3.49987 330.6 7.19987 328.6 12.9999 323.6C16.2999 320.8 20.9999 316.9 23.5999 315C26.0999 313.1 30.4999 309.2 33.2999 306.4C36.1999 303.6 39.4999 301 40.6999 300.6C41.8999 300.2 44.5999 297.7 46.5999 295C48.6999 292.2 50.8999 290 51.4999 290C52.0999 290 53.6999 288.9 54.9999 287.5C56.2999 286.1 57.9999 285 58.6999 285C60.0999 285 79.2999 304.3 79.7999 306.3C80.7999 309.6 83.0999 313.8 84.9999 315.5C86.0999 316.5 86.9999 318 86.9999 318.8C86.9999 321.4 111.6 351 121.5 360.3C123.7 362.4 128.2 366.8 131.6 370C134.9 373.3 138.3 376 139.1 376C141 376 165.6 400.9 166.5 403.8C166.8 405 168 406.5 169.1 407C170.1 407.6 171 408.6 171 409.2C171 410.8 177 422.9 178.1 423.5C178.6 423.9 179 424.8 179 425.7C179 426.5 180.1 428.1 181.5 429.2C182.9 430.3 184 431.7 184 432.4C184 434.5 187.2 440.4 189.2 441.8C190.4 442.7 191 444.4 191 446.9C191 449.2 191.8 451.7 193 453.3C195.7 456.7 195.5 458.8 192 463.4C190.1 465.9 189 468.6 189 470.6C189 472.7 188.1 474.8 186.1 476.9C184.3 478.9 183 481.5 182.6 484.4C182.2 486.8 181 489.6 180 490.5C178.9 491.5 178 493.2 178 494.2C178 495.3 177.1 497.3 176 498.7C174.9 500.1 174 502.2 174 503.4C174 504.5 173.3 506.4 172.5 507.4C171.7 508.5 171 510.6 171 512.2C171 513.9 170.3 515.3 169 516C166.7 517.2 166.3 521.8 168.4 522.6C170.1 523.3 175.8 520.3 180.7 516.1C188.6 509.4 195.3 504.8 202.8 500.9C207 498.7 211.4 496 212.5 495C217 491 222.9 492 229.2 497.9C231 499.6 233.7 501.2 235.2 501.5C236.6 501.9 238.4 502.8 239.1 503.6C239.7 504.4 241 505 242 505C242.9 505 244.5 505.9 245.5 507C246.5 508.1 248.3 509 249.4 509C250.6 509 252.1 509.9 252.8 511C253.5 512.1 254.5 513 255.2 513C255.8 513 257.1 513.6 257.9 514.4C259.9 516.2 269 515.4 269 513.4C269 512.7 268.6 511.8 268 511.5C267.5 511.2 267 510.1 267 509.1C267 508.1 266.3 506.7 265.5 506C264.7 505.3 264 503.5 264 501.9C264 500 262.9 497.9 260.5 495.5C258.5 493.6 256.7 490.7 256.4 489C256 487.4 255.1 485.5 254.4 484.9C253.6 484.3 253 483.2 253 482.5C253 481.8 251.3 479 249.3 476.3C242.1 467 241 465.1 241 461.7C241 459.5 241.8 457.6 243.1 456.4C244.2 455.4 246.1 452.5 247.2 450C248.3 447.5 249.9 445.1 250.6 444.7C251.4 444.3 252 443.3 252 442.5C252 441.7 252.8 440.3 253.9 439.3C254.9 438.3 256.1 436.4 256.5 435C256.9 433.6 258.6 430.9 260.1 428.9C261.7 426.9 263 424.3 263 423.2C263 422.2 263.9 420.1 265 418.7C266.1 417.3 267 415.8 267 415.2C267 414.7 268.6 412.2 270.5 409.7C272.4 407.2 274 404.6 274 404.1C274 402.7 267.3 402.7 266.5 404C266.2 404.5 264.9 405 263.6 405C262.3 405 260.5 405.9 259.5 407C258.5 408.1 257.1 409 256.4 409C255.6 409 253 410.6 250.4 412.5C247.9 414.4 245 416 243.9 416C242.8 416 241.7 416.7 241.3 417.6C241 418.4 239.8 419.6 238.6 420.1C235.2 421.7 232.1 423.6 230.3 425.2C229.1 426.3 226 426.9 221.5 427.2C215 427.5 214.5 427.3 214.2 425.4C214 424.2 212.3 421.8 210.4 420C208.6 418.1 207 415.8 207 414.8C207 413.8 206.6 413 206.2 413C205.4 413 202 406.1 202 404.6C202 404.3 200.9 402.2 199.5 400C198.1 397.8 197 395.6 197 395C197 394.4 196.5 393.4 196 392.7C195.4 392 193.5 389.2 191.8 386.5C190.1 383.7 186 378.7 182.8 375.3C179.6 371.9 177 368.5 177 367.8C177 367 175.9 365.3 174.5 364C173.1 362.7 172 361.1 172 360.5C172 359.9 170.6 358.1 168.9 356.4C167.2 354.8 165.1 352.1 164.2 350.4C161 344.6 119.4 289 111.1 279.5C107.7 275.6 101.4 268.1 96.9999 262.8L88.8999 253L97.1999 243.3C101.8 237.9 106.9 231.9 108.7 230C110.4 228.1 113 224.3 114.4 221.4C115.8 218.6 117.6 215.7 118.5 215C119.3 214.3 120 213.2 120 212.5C120 211.8 120.7 210.7 121.5 210C122.3 209.3 123 208 123 207.1C123 206.1 124.1 204.4 125.5 203.2C126.9 202 128 200.5 128 199.8C128 199.1 136.1 190.4 145.9 180.5C162.8 163.6 187 135.1 187 132.3C187 131.6 187.4 131 187.9 131C188.4 131 189.2 130 189.6 128.7C190 127.5 191.3 125.2 192.6 123.7C193.9 122.1 195 120.3 195 119.6C195 118.9 196.1 117.4 197.5 116.2C198.9 115 200 113.4 200 112.7C200 111.9 200.9 110.5 202 109.5C203.1 108.5 204 107.1 204 106.4C204 105.7 206.3 102.8 209 100C211.8 97.2 214 94 214 93C214 90.3 215.8 89.5 217.9 91.4C218.9 92.3 220.8 93 222.2 93C223.6 93 225.4 93.7 226.1 94.7C227.7 96.6 236.8 101 239.2 101C241 101 247.6 104.6 249.8 106.7C250.5 107.4 251.8 108 252.7 108C253.6 108 255.7 108.9 257.5 110C259.9 111.5 263.3 112.2 270.4 112.7L280 113.3L278.5 109.7C276.9 105.8 274.8 103.4 261.3 89.5C256.7 84.8 253 80.3 253 79.5C253 78.7 250.3 75.2 247 71.8C243.7 68.3 241 64.8 241 64C241 63.1 240.5 61.9 239.9 61.3C238.6 60 240.2 54.2 242.9 50C246.3 44.6 247 43.4 248.1 41C248.7 39.6 249.9 37.6 250.8 36.5C252.6 34.4 253.3 33.2 257.5 25.2C258.9 22.4 260.8 19.6 261.6 18.9C262.4 18.3 263 17.1 263 16.2C263 15.4 263.7 13.9 264.6 12.9C265.5 11.9 266 10.4 265.6 9.50001C264.9 7.40001 262.3 8.20001 256.5 12.1C254.1 13.7 251.1 15 249.8 15C248.4 15 246.5 15.9 245.5 17C244.5 18.1 243 19 242.3 19C241.5 19 238.8 20.6 236.4 22.6C233.5 25 230.7 26.4 228.4 26.6C226.1 26.8 224.3 27.6 223.3 29C221 32.3 216.4 31 201.5 22.5C198.2 20.6 194.6 18.7 193.5 18.1C192.4 17.6 189.3 15.1 186.7 12.6C184 10.1 181.4 8.00001 180.9 8.00001C180.3 8.00001 178.3 6.40001 176.3 4.50001C172.7 1.00001 169.8 0.200007 167.1 1.90001Z" fill="white"/>
<path d="M1300.3 7.69999C1298.8 10.9 1296.2 15.5 1294.3 17.9C1291.6 21.5 1291 23.2 1291 27.4C1291 31.5 1290.5 33 1288.5 34.9C1285.6 37.6 1280.3 39.2 1273.8 39.4C1271.2 39.5 1268.5 40.1 1267.9 40.7C1266 42.6 1262.3 42.3 1261.1 40.2C1260.3 38.8 1259.8 38.7 1258.1 39.7C1255.6 41.2 1244.4 41.4 1243.5 40C1243.2 39.4 1242.2 39 1241.4 39C1240.4 39 1240 40.2 1240 43.1C1240 47.6 1241.7 49.6 1263.4 70.8C1282 88.9 1292 99.2 1292.1 100.3C1292.2 101 1292.1 119.9 1292.1 142.5C1291.9 182.2 1291.9 183.5 1289.9 185.3C1287.4 187.6 1282.9 189.1 1277.2 189.4C1273.9 189.6 1272.4 189.1 1270.4 187.4C1268.3 185.4 1267.6 185.2 1265.2 186.2C1260.8 188.1 1259.7 189.6 1260.4 192.4C1260.8 193.9 1261.9 195.8 1263 196.8C1264.1 197.7 1265 199.4 1265 200.6C1265 201.7 1265.9 203.5 1267 204.5C1268.1 205.5 1269 207.1 1269 208C1269 208.9 1270.6 211.5 1272.5 213.7C1274.4 216 1276 218.5 1276 219.4C1276 220.3 1276.9 221.8 1278 222.7C1279.1 223.7 1280 225 1280 225.7C1280 226.3 1280.6 227.5 1281.3 228.2C1286.7 234 1290.3 243.2 1290.1 251C1290 253.9 1288.5 256 1279.4 265.5C1273.5 271.5 1267.9 277.4 1266.9 278.5C1265 280.6 1264.4 284.6 1265.8 286.5C1266.2 287.1 1268.9 287.6 1271.7 287.7C1274.6 287.8 1278.8 288.4 1281 289C1284 289.8 1285.4 289.8 1287 288.8C1288.7 287.7 1289.3 287.8 1290.9 289.5C1293.2 291.8 1293.6 294.4 1292.5 298.4C1292 300.2 1292.1 302 1292.8 303.1C1293.5 304.1 1293.6 305.1 1293.1 305.4C1291.7 306.3 1290.9 345.8 1292.3 346.7C1292.7 346.9 1292.8 348.1 1292.4 349.3C1291.4 352.3 1291.2 504.9 1292.2 507.7C1292.7 509.2 1293.8 510 1295.4 510C1299.6 510 1302 501.3 1303.6 481C1303.8 478 1304.3 474.4 1304.6 473C1305 471.6 1305.6 466 1306.1 460.5C1307.3 445.2 1308.1 438.6 1309 436.9C1309.5 436.1 1310 429.6 1310.1 422.4C1310.2 415.3 1310.6 409 1311 408.5C1311.4 407.9 1312 404.1 1312.4 400C1312.7 395.9 1313.2 391.4 1313.5 390C1313.8 388.6 1314.1 384.6 1314.1 381C1314.2 377.4 1314.6 373.8 1315 373C1315.4 372.2 1316.1 367.7 1316.4 363C1317.2 352.3 1318.6 341.7 1319.8 336.5C1320.4 334.3 1321.1 330 1321.5 326.9C1322 322.5 1322.8 320.6 1325.2 318.1C1326.9 316.4 1328.8 315 1329.4 315C1331.3 315 1338.7 323.2 1340.3 327C1341.1 328.9 1343.8 332.9 1346.4 335.8C1348.9 338.8 1351 341.5 1351 342C1351 343.5 1359.1 357 1360 357C1360.5 357 1361.2 357.9 1361.5 359C1361.8 360.1 1362.7 361.6 1363.3 362.2C1367.6 366.8 1373 374 1373 375.2C1373 376 1375.4 379.3 1378.3 382.6C1383.8 388.9 1385.4 391.1 1387 394.8C1387.5 396 1388.6 397.3 1389.4 397.6C1390.3 397.9 1391.2 399.2 1391.6 400.3C1392.3 402.6 1398.6 411 1400.6 412.2C1401.2 412.6 1402.5 414.9 1403.4 417.4C1404.3 419.8 1406.2 422.6 1407.6 423.4C1408.9 424.3 1410 425.8 1410 426.8C1410 427.8 1411.8 430.6 1414 433C1416.2 435.4 1418 437.9 1418 438.5C1418 439.1 1419.5 441.4 1421.3 443.6C1423.1 445.7 1425.8 449.5 1427.2 452C1428.6 454.5 1431.2 457.8 1432.9 459.4C1434.6 461.1 1436 463 1436 463.9C1436 464.7 1436.8 466.3 1437.9 467.4C1438.9 468.6 1441.6 472.2 1443.9 475.5C1451.4 486.5 1464.8 501.3 1469.3 503.5C1474.4 506.1 1476 505.5 1476 501.2C1476 497.3 1472.1 488.1 1469.5 486C1468.7 485.3 1468 484.4 1468 483.9C1468 483.2 1464.5 476.9 1459.3 468.5C1458.6 467.4 1457.5 465.4 1456.8 464C1456.2 462.6 1454.7 460.2 1453.5 458.5C1449.7 452.9 1447.9 448.8 1448.5 447C1448.8 445.9 1448.5 445 1447.5 444.7C1445.9 444 1440.5 436.2 1435 426.3C1433.1 422.9 1428.6 415.2 1425 409.3C1421.5 403.4 1417.6 396.6 1416.4 394.3C1415.2 392 1413.4 388.9 1412.3 387.3C1411.2 385.8 1409.6 382.9 1408.6 381C1407.7 379.1 1404.9 374.3 1402.5 370.5C1400.1 366.6 1396.5 360.3 1394.4 356.5C1392.4 352.6 1390.2 348.8 1389.6 348C1387.7 345.7 1380 332.5 1380 331.6C1380 331.2 1378.7 328.9 1377 326.5C1375.4 324.1 1374 321.7 1374 321.2C1374 320.7 1373.1 319.5 1372.1 318.6C1371 317.6 1369.6 315.4 1368.9 313.7C1368.2 311.9 1364.7 305.5 1361 299.5C1357.4 293.4 1354.1 287.8 1353.7 287C1353.3 286.2 1352.1 284.1 1351 282.5C1349.4 279.9 1346.9 275 1342.7 266.3C1341.9 264.5 1342 263.6 1343.3 262.2C1344.3 261.2 1345 259.7 1345 258.8C1345 256.6 1348.7 252.3 1352.9 249.5C1354.9 248.1 1358.3 245.7 1360.5 244.1C1362.7 242.4 1365.4 240.6 1366.5 240C1367.6 239.5 1370.5 237.4 1373 235.5C1378.4 231.3 1386 226 1386.4 226C1387 226 1408.3 210.3 1412.1 207.1C1414.1 205.4 1416.2 204 1416.7 204C1417.3 204 1418.3 203.3 1419 202.5C1420.9 200.2 1430.7 200.5 1435.5 203C1437.7 204.1 1440 205 1440.8 205C1441.5 205 1443 205.8 1444.1 206.9C1446.4 209 1459.4 216 1461.1 216C1461.7 216 1463.3 216.9 1464.7 218C1466.1 219.1 1468.3 220 1469.5 220C1470.7 220 1472.3 220.7 1473 221.5C1473.7 222.3 1475.2 223 1476.5 223C1477.7 223 1479.5 223.9 1480.5 225C1481.5 226.1 1483.4 227 1484.7 227C1485.9 227 1487 227.4 1487 228C1487 228.5 1487.9 229 1489 229C1491.6 229 1491.7 225.4 1489.1 222.6C1486.2 219.3 1480 210.1 1480 209C1480 208.5 1479.3 208 1478.5 208C1477.7 208 1476.4 206.8 1475.6 205.2C1474.8 203.7 1472.8 201.2 1471.1 199.6C1469.4 197.9 1468 196.2 1468 195.7C1468 194.9 1463 189.1 1458.3 184.5C1455.1 181.4 1455.4 177.9 1459 174.5C1460.7 172.9 1462 171.1 1462 170.5C1462 169.8 1462.9 168.5 1464 167.5C1465.1 166.5 1466 165.2 1466 164.7C1466 164.1 1466.9 162.7 1467.9 161.6C1470.2 159.2 1473.2 155.1 1479.5 145.8C1482 142.1 1485 138.5 1486.2 137.9L1488.4 136.7L1485.6 134.4C1483.5 132.5 1482.5 132.2 1481 133C1480 133.5 1478.3 134 1477.2 134C1476.2 134 1474.5 134.9 1473.5 136C1472.5 137.1 1470.7 138 1469.5 138C1466.8 138 1456.5 142.4 1455.5 143.9C1455.2 144.5 1452.8 145 1450.2 145C1445.4 145 1439.4 147.5 1435.4 151.1C1432.8 153.5 1430.9 153.5 1427.7 151C1426.3 149.9 1424.5 149 1423.6 149C1422.8 149 1421.4 147.7 1420.5 146.1C1419.7 144.5 1418.1 142.8 1417 142.5C1415.8 142.1 1413.1 140.1 1410.8 137.9C1408.5 135.8 1405.9 134 1404.9 134C1403.9 134 1402.8 133.5 1402.4 132.9C1402.1 132.3 1400.2 131.2 1398.4 130.4C1396.5 129.6 1395 128.3 1395 127.6C1395 125.2 1392 123 1388.8 123C1386.4 123 1384.2 121.6 1378.7 116.4C1374.9 112.8 1370.3 109.2 1368.6 108.5C1366.9 107.8 1364.6 106.2 1363.5 104.9C1362.4 103.7 1360 102.1 1358.1 101.3C1351.1 98.3 1332 83.1 1332 80.5C1332 79.8 1331.3 78.7 1330.5 78C1329.7 77.3 1329 76.1 1329 75.3C1329 74.6 1327.9 72.7 1326.5 71.2C1325.1 69.7 1324 67.6 1324 66.5C1324 65.4 1323.3 63.6 1322.5 62.6C1321.7 61.5 1321 59.5 1321 58.1C1321 56.8 1320.2 54.8 1319.3 53.8C1318 52.4 1317.5 49.8 1317.4 44C1317.3 38.8 1316.6 35 1315.5 32.8C1314.5 31 1313.6 27.8 1313.5 25.7C1313.3 23.6 1312.5 21.1 1311.7 20.2C1310.9 19.2 1310 15.4 1309.7 11.1C1309.1 3.59999 1308.2 1.99999 1304.7 1.99999C1303.5 1.99999 1302.1 3.79999 1300.3 7.69999ZM1342.5 132.4C1344.7 134.1 1347.9 136.7 1349.5 138.2C1351.2 139.8 1357.6 144.7 1363.9 149.2C1370.1 153.8 1377.6 159.4 1380.4 161.7C1383.2 164.1 1387.6 167.7 1390.2 169.7C1392.8 171.8 1394.9 174.2 1394.9 175C1394.9 175.8 1393.2 177.8 1391.2 179.3C1389.2 180.8 1384.6 184.4 1381 187.2C1377.4 190 1372.9 193.3 1371 194.6C1369.1 195.9 1365.5 198.6 1363 200.5C1355.9 205.9 1350 210 1349.1 210C1348.7 210 1347.5 210.9 1346.4 212.1C1344.3 214.5 1336.3 220 1335.1 220C1334.6 220 1334 220.7 1333.6 221.5C1332.8 223.6 1330.7 223.4 1328.6 221.1C1327 219.4 1326.8 215.4 1326.3 182.8C1325.7 138.7 1326.1 133.2 1330 129C1332.9 125.9 1332.9 125.9 1335.7 127.6C1337.2 128.6 1340.3 130.8 1342.5 132.4Z" fill="white"/>
<path d="M1097.1 7.49999C1094.8 9.99999 1092.3 13.3 1091.7 14.8C1090.4 17.7 1089 19.4 1079.3 29.5C1075.9 33.1 1072.9 36.8 1072.6 37.8C1072.2 38.7 1068 43.7 1063.1 48.8C1058.1 53.9 1054 59 1053.8 60.2C1053.6 61.4 1052.6 62.8 1051.5 63.4C1050.4 64 1047.8 65.8 1045.7 67.4C1041.9 70.2 1041.7 70.3 1039 68.7C1037.5 67.7 1035.4 67 1034.5 67C1033.6 67 1030.9 65.4 1028.6 63.5C1026.2 61.6 1023.9 60 1023.5 60C1023.1 60 1020.6 58.1 1018.1 55.7C1010.3 48.6 1005.6 45 1004 45C1003.1 45 1000 42.7 997 39.9C994 37.1 990.6 34.4 989.5 33.8C985.7 32 981.5 29.5 978.3 27.2C974.7 24.6 973.7 24.5 972.1 26.3C971.3 27.4 971.6 28.2 973.5 30C974.9 31.3 976 33.3 976 34.5C976 35.6 976.9 37.3 978 38.3C979.1 39.2 980 40.8 980 41.8C980 42.9 981.6 45.3 983.5 47.3C985.4 49.3 987 51.7 987 52.8C987 53.8 988.6 56.1 990.5 58C992.5 59.9 994 62.4 994 63.6C994 64.9 994.6 66.3 995.4 66.7C996.1 67.1 998.7 71.1 1000.9 75.5C1003.2 79.9 1005.9 84.4 1006.8 85.5C1007.8 86.6 1009.4 89.2 1010.4 91.2C1011.4 93.2 1013.3 95.9 1014.6 97.1C1015.9 98.3 1017 99.8 1017 100.3C1017 100.9 1017.8 102.2 1018.7 103.2C1020.3 105 1020.3 105.3 1018.5 108.8C1013.3 118.6 1006.8 127.2 999.1 134.4C995.5 137.8 981.3 153.8 975 161.6C972.9 164.2 965.7 174.1 964.5 176.1C963.9 177 961.8 180.2 959.7 183.2C957.7 186.3 955.4 190.3 954.7 192.3C954 194.5 952 196.9 949.8 198.4L946 200.9L942.5 198.7C940.6 197.5 938.8 195.6 938.4 194.6C937.7 192.4 927.4 179.9 925.3 178.7C924.6 178.3 924 177 924 175.9C924 173.8 920.3 168.6 913.3 160.8C910.9 158.2 909 155.7 909 155.2C909 154.8 907.4 152.9 905.5 151C903.6 149.1 902 146.7 902 145.7C902 144.7 900.3 142.2 898.3 140.2C896.2 138.1 893.2 134.8 891.7 132.7C887.6 127.3 881.8 128 885.4 133.5C886.3 134.8 887 137.4 887 139.2C887.1 141 887.7 144.3 888.5 146.5C889.3 148.7 890 151.4 890 152.5C890 153.6 890.9 156 892 157.8C893.4 160.1 894 162.8 894 167C894 171.7 894.4 173.3 896.1 174.9C897.9 176.6 898.1 177.6 897.6 181.3C897 185.2 897.3 186.2 899.5 188.8C901.6 191.3 901.9 192.3 901.1 193.8C900.3 195.3 900.6 196.9 902.5 200.6C904.1 203.8 905 207.2 905 210.3C905 213.1 905.8 216.7 907 219C908.1 221.2 909 224.8 909 227.1C909 229.7 909.7 232.1 911 233.7C912.1 235.1 913 237.6 913 239.3C913 240.9 913.9 243.8 915.1 245.6L917.1 248.9L915.1 253.6C913.9 256.2 913 260 913 262.2C913 264.7 912.2 267.2 911 268.7C909.9 270.1 909 272.7 909 274.5C909 276.4 908.2 278.4 907 279.5C905.7 280.7 905 282.6 905 285C905 287.1 904.3 289.3 903.5 290C902.7 290.7 902 292.2 902 293.4C902 294.5 901.1 296.6 900 298C898.9 299.4 898 301.1 898 301.9C898 302.7 897.3 304.1 896.5 305C895.6 306 894.6 308.5 894.3 310.6C894 312.8 892.8 315.7 891.7 317.2C890.4 319 889.9 320.6 890.4 322.4C890.9 324.3 890.5 325.4 889 326.7C887.9 327.7 887 329.4 887 330.6C887 331.7 886.1 333.7 885 335C883.8 336.4 883 338.7 883 340.8C883 342.9 882.3 344.8 881.3 345.6C879.6 346.9 879.6 347.1 881.5 348.6C885.5 351.7 891.8 347.8 899.7 337.5C902.8 333.4 907.5 328.1 913.5 321.6C922.8 311.7 924 310.1 924 308.4C924 307.5 926.9 303.7 930.5 300.1C934 296.5 937.8 292.4 938.9 291L940.9 288.5L944.8 292.7C947 295.1 949.4 297 950.2 297C952.1 297 965 310.3 965 312.3C965 313.1 965.7 314.3 966.6 315.1C967.4 315.8 969.7 319.6 971.6 323.4C973.6 327.3 975.9 331.4 976.9 332.5C977.9 333.6 980.2 337.6 982 341.5C983.9 345.3 985.7 348.6 986.2 348.8C986.6 349 987 349.9 987 350.7C987 351.5 988.8 354.5 991 357.2C993.2 360 995 362.9 995 363.6C995 364.4 995.5 365 996 365C996.6 365 997 365.7 997 366.6C997 368.6 1004 382.1 1010.4 392.5C1013.1 396.9 1015.9 401.7 1016.7 403.2C1017.5 404.7 1018.6 406.2 1019.1 406.6C1020.8 407.6 1028 425.1 1028 428.2C1028 431 1024.5 437.3 1022.1 438.8C1020.9 439.5 1020 440.9 1020 442C1020 443.1 1018.4 446.3 1016.5 449C1014.6 451.7 1013 455 1013 456.3C1013 457.6 1011.4 460.8 1009.5 463.3C1007.6 465.8 1006 468.3 1006 468.8C1006 469.3 1005.3 470.3 1004.5 471C1003.7 471.7 1003 473.2 1003 474.4C1003 475.7 1001.9 477.6 1000.5 478.8C999 480.1 998 482.1 998 483.6C998 486.3 992.6 495.4 989.5 498C987.8 499.4 983 509.2 983 511.4C983 512.1 982.3 513.3 981.5 514C980 515.2 979.4 519 980.7 519C981 519 984.3 516 988 512.2C991.7 508.5 995.4 504.9 996.1 504.2C998.1 502.4 1011.4 489.4 1026.6 474.3C1034.9 466.1 1040.8 461 1042 461C1043.1 461 1044.8 460.1 1045.7 459C1047 457.6 1048.7 457 1051.7 457C1055.3 457 1056.5 457.5 1058.8 460.1C1060.3 461.9 1066 467.6 1071.4 472.9C1076.8 478.2 1082.7 484 1084.4 485.9C1086.1 487.8 1089.2 491 1091.3 493C1093.3 495 1095 497.2 1095 497.8C1095 499.4 1099.1 502 1101.7 502C1103.3 502 1104 501.4 1104 500.1C1104 499 1103.6 497.8 1103 497.5C1102.5 497.2 1102 495.1 1102 492.8C1102 490.3 1101.2 487.9 1100 486.3C1098.7 484.7 1098 482.2 1098 479.6C1098 477.3 1097.3 474.5 1096.5 473.3C1095.6 472.1 1093.9 466.7 1092.5 461.4C1091.1 456.1 1089.4 450.9 1088.5 450C1087.7 449.1 1087 447.4 1087 446.3C1087 445.2 1086.1 443.5 1085 442.5C1083.3 441 1083 439.4 1083 433.3C1083 427.4 1082.6 425.4 1080.9 423.1C1078.9 420.4 1078.9 420.1 1080.4 417.2C1081.3 415.5 1082.4 413.8 1083 413.5C1083.5 413.2 1084 412.1 1084 411.1C1084 410.1 1084.7 408.7 1085.5 408C1086.3 407.3 1087 406 1087 405.1C1087 404.1 1088.1 402.4 1089.5 401.2C1090.9 400 1092 398.5 1092 397.9C1092 397.2 1099.3 389.3 1108.3 380.1C1119.5 368.7 1127 360.1 1132.1 352.7C1141 339.7 1144.7 334 1145.6 332C1146 331.2 1147.5 328.7 1149 326.5C1150.5 324.3 1152.8 320.8 1154.1 318.8C1156.9 314.4 1157.3 314.3 1160.7 317C1162.1 318.1 1163.9 319 1164.7 319C1166.5 319 1173 325.5 1173 327.3C1173 328 1175.4 331.3 1178.3 334.6C1181.2 337.8 1184.1 341.8 1184.8 343.3C1185.5 344.8 1188.7 348.9 1192 352.3C1195.3 355.7 1198.8 359.9 1199.8 361.6C1200.7 363.4 1203.6 367.1 1206.2 370C1210.6 374.7 1211.2 375.1 1213.7 374.3C1217.4 373.1 1218 368.1 1215.1 364.4C1213.9 362.9 1213 360.3 1213 358.5C1213 356.7 1212.3 354.7 1211.5 354C1210.7 353.3 1210 351.6 1210 350.1C1210 348.7 1209.1 346 1208 344.2C1206.9 342.4 1206 340.1 1206 339.1C1206 338.1 1205.1 336.3 1204 335C1202.9 333.7 1202 331.5 1202 330C1202 328.5 1201.3 326.7 1200.5 326C1199.7 325.3 1198.7 323 1198.4 320.9C1198 318.8 1197.1 316.5 1196.4 315.9C1195.6 315.3 1195 313.6 1195 312.1C1195 310.7 1194.1 308 1193 306.2C1191.9 304.4 1191 302.2 1191 301.3C1191 300.4 1190 298.6 1188.9 297.4C1187 295.4 1186.7 293.6 1186.2 282.1C1185.8 271.2 1186 268.7 1187.2 267.2C1188.1 266.3 1190.2 262 1191.9 257.7C1193.6 253.4 1195.7 249.2 1196.5 248.4C1197.3 247.5 1198 246.1 1198 245.1C1198 244.1 1198.9 242.3 1200 241C1201.1 239.7 1202 238.2 1202 237.5C1202 236.8 1202.9 235.3 1204 234C1205.1 232.7 1206 230.7 1206 229.5C1206 228.2 1206.7 226.7 1207.5 226C1208.3 225.3 1209.2 223.2 1209.6 221.1C1209.9 219.1 1210.8 216.5 1211.6 215.3C1212.4 214.1 1213 212.4 1213 211.7C1213 210.9 1213.9 209.5 1215 208.5C1216.1 207.5 1217 205.7 1217 204.4C1217 203.2 1218.6 199.1 1220.5 195.4C1222.4 191.7 1224 187.9 1224 187C1224 186 1224.9 184.1 1226 182.7C1227.1 181.3 1228 179.3 1228 178.3C1228 177.2 1229.1 175.3 1230.5 174C1233.4 171.3 1233.7 170 1231.4 170C1229.1 170 1209 191.3 1209 193.8C1209 194.5 1208.6 195 1208.2 195C1207.7 195 1206.8 196.2 1206.2 197.6C1205.5 199 1203.3 201.8 1201.3 203.9C1199.3 206 1196.7 209.3 1195.6 211.2C1194.4 213.1 1189.9 218.9 1185.5 224C1181.1 229.1 1176.8 234.4 1175.8 235.9C1174.9 237.3 1172.8 240 1171.2 241.9L1168.3 245.3L1163.4 241.8C1160.7 239.9 1157.7 236.9 1156.8 235.1C1155.9 233.3 1154.2 230.8 1153.1 229.6C1151.9 228.4 1151 226.7 1151 225.8C1151 224.9 1150.7 224 1150.3 223.8C1149.8 223.6 1148.6 221.7 1147.5 219.5C1146.4 217.3 1144.5 214 1143.3 212.1C1142 210.2 1141 207.9 1141 207C1141 203.8 1132.2 187.5 1127 181C1124.1 177.4 1119.7 171.6 1117.2 168C1114.6 164.4 1112.3 161.3 1112 161C1111.7 160.7 1110.2 158.8 1108.6 156.7C1107 154.5 1100.4 147.4 1093.9 140.9C1087.3 134.3 1082 128.4 1082 127.7C1082 127 1080.2 124.7 1078.1 122.5C1075.9 120.4 1074.2 118.4 1074.3 118.1C1074.4 117.7 1073 114.4 1071.1 110.8L1067.8 104.1L1069.9 101.4C1071.2 99.8 1072 97.3 1072 95C1072 92.6 1072.7 90.7 1074 89.5C1075.1 88.5 1076 86.5 1076 85.1C1076 83.7 1076.9 81.1 1078 79.5C1079.1 77.8 1080 75 1080 73.2C1080 71.3 1080.9 68.7 1082 67.3C1083.5 65.4 1083.9 63.8 1083.4 61.6C1083 59.2 1083.4 58 1084.9 56.6C1086.1 55.5 1087 53.8 1087 52.8C1087 51.7 1087.9 49.7 1089 48.3C1090.1 46.9 1091 44.3 1091 42.5C1091 40.5 1091.8 38.6 1093.1 37.4C1094.7 36 1095.1 34.7 1094.7 32.3C1094.3 30 1094.7 28.4 1096.1 26.6C1097.1 25.3 1098 23.4 1098 22.5C1098 21.6 1098.9 19.7 1100 18.3C1101.1 16.9 1102 14.2 1102 12.4C1102 10.4 1102.6 8.69999 1103.6 8.19999C1105.6 7.09999 1105.1 3.59999 1102.9 3.19999C1102 3.09999 1099.4 4.99999 1097.1 7.49999ZM1053.2 146C1056.2 150.1 1062.7 159.1 1067.7 166C1076.4 178 1098.1 210.6 1108.8 227.7C1111.7 232.3 1116.2 239.5 1118.8 243.7C1121.5 248 1126.8 256.4 1130.7 262.5C1134.5 268.5 1138.2 275.4 1138.9 277.8C1140 281.8 1139.9 282.4 1137.6 286.3C1130.5 298.2 1103 335.6 1094.1 345.5C1087.3 353.1 1061.1 378.9 1058.4 380.7C1055.3 382.7 1054.8 382.3 1045.8 369.6C1041.9 364.1 1037.4 358.1 1035.9 356.5C1034.4 354.8 1032.4 351.5 1031.3 349C1030.2 346.5 1025.3 338.4 1020.3 331C1015.4 323.6 1009.8 315 1007.9 312C996.9 294.8 991.1 285.6 980.6 268.1C967.7 246.8 968 247.9 973.7 241.4C975.1 239.8 978.3 235.6 980.8 232C983.4 228.4 985.7 225.3 986.1 225C986.6 224.6 995.9 210.6 1010.9 187.5C1012.3 185.3 1013.7 183.3 1014.1 183C1014.4 182.7 1019.1 176 1024.5 168C1039.5 145.9 1045.4 138 1046.7 138.3C1047.3 138.4 1050.3 141.9 1053.2 146Z" fill="white"/>
<path d="M1563.7 4.09998C1562 5.09998 1562 5.29998 1563.5 7.59998C1564.4 8.99998 1564.8 10.9 1564.5 11.9C1564.2 12.9 1564.5 15 1565.2 16.5C1566.2 18.7 1566.1 19.7 1564.5 22.6C1562.7 25.9 1562.7 26.2 1564.4 29C1565.6 31.1 1565.8 32.5 1565.2 33.7C1563.3 37.3 1562.8 43.9 1564.2 45.4C1565.7 46.8 1565.7 51 1564.4 59.3C1564 61.4 1564.3 65.1 1565 67.5C1566.1 71.3 1566 72.3 1564.6 74.4C1562.5 77.7 1562.5 86.3 1564.6 89.5C1565.7 91.3 1565.9 92.4 1565.2 93.3C1564.7 93.9 1563.9 96.8 1563.5 99.7C1563 103.6 1563.2 105.4 1564.4 107.2C1565.8 109.3 1565.8 109.9 1564.5 111.6C1562.7 114 1562.7 116.4 1564.5 121.4C1565.3 123.6 1565.6 125.8 1565.2 126.4C1564.8 127 1564.4 129.1 1564.4 131C1564.3 132.9 1564.1 139 1563.8 144.5C1563.5 151.8 1563.8 155.1 1564.8 156.7C1566 158.6 1565.9 159.2 1564.4 161.5C1562.9 163.7 1562.8 164.7 1563.8 167.2C1564.5 169.3 1564.6 170.9 1564 172.1C1563.4 173.2 1563.1 186 1563.2 203.7C1563.3 220.1 1563.1 234 1562.7 234.6C1562.4 235.2 1562.5 237.2 1563 238.9C1563.5 240.8 1563.5 246.1 1563 251.8C1562.3 260.6 1562.4 261.7 1564.1 263.5C1565.9 265.5 1565.9 265.6 1563.9 267.7C1562.3 269.3 1562 270.2 1562.8 271.6C1563.3 272.7 1563.4 274.4 1562.9 275.5C1561.3 279.6 1561.9 284.7 1564.2 286.2C1566.4 287.7 1566.4 287.8 1564.6 290.4C1563.1 292.8 1562.8 295.9 1562.5 311C1562.2 324.7 1562.4 329.2 1563.4 330.6C1564.6 332.1 1564.5 332.8 1563.3 334.7C1562 336.7 1561.8 339.6 1562.4 352.8C1562.8 361.4 1563 369.2 1563 370C1562.5 375.9 1563.1 385.5 1564 385.8C1565.5 386.3 1565.2 389.7 1563.5 390.4C1561 391.3 1561.5 401.8 1564.1 404.6L1566.1 406.8L1564 408.8C1562.3 410.4 1562 411.2 1562.8 412.7C1563.5 413.9 1563.5 415.2 1562.9 416.1C1562.4 416.8 1562 419.4 1562 421.6C1562 424.9 1561.5 426.1 1559.5 427.4C1558.1 428.3 1557 429.9 1557 431C1557 432.7 1553.9 435.6 1550 437.4C1547 438.8 1543.7 440.8 1543.1 441.7C1541.7 443.7 1534.1 449 1532.6 449C1531.7 449 1530.2 449.9 1529.3 451C1528.3 452.1 1527.2 453 1526.7 453C1525.2 453 1515 461.4 1515 462.7C1515 463.4 1515.8 464.9 1516.7 466C1518.3 467.9 1519.6 468 1538.7 468H1558.9L1563.5 471.1C1566 472.8 1568.5 475.1 1569.2 476.3C1569.8 477.5 1570.9 478.9 1571.6 479.3C1572.4 479.7 1573 481.6 1573 483.4C1573 485.2 1573.9 487.9 1575 489.3C1576.1 490.7 1577 492.5 1577 493.3C1577 494.9 1580.2 502.7 1585.4 514C1586.9 517.2 1591 517.8 1593.4 515.1C1594.8 513.6 1595.3 511.3 1595.4 506.1C1595.5 501.1 1596 498.7 1597.2 497.3C1598.5 495.8 1599.1 493.2 1599.3 486.9C1599.5 481.5 1600.3 477.3 1601.3 475.3C1602.4 473.2 1603 469.7 1603 465.2C1603 459.5 1603.4 458 1605.1 456.4C1606.6 455 1607 453.8 1606.6 451.7C1606.3 450 1606.6 447.7 1607.4 446.1C1608.2 444.7 1609.3 442.1 1610 440.4C1610.6 438.6 1612.5 436.6 1614.3 435.7C1624.3 430.4 1631.4 426.1 1634.3 423.4C1636.1 421.7 1638.4 420 1639.5 419.6C1640.6 419.3 1644 416.8 1647 414C1650 411.3 1653.2 409 1654 409C1654.8 409 1657.3 407.3 1659.5 405.3C1661.7 403.2 1665.1 400.7 1667 399.6C1668.9 398.6 1672.5 396.1 1675 394C1677.5 392 1680.7 390 1682.1 389.7C1683.5 389.3 1688.6 385.9 1693.3 382C1698 378.2 1702.3 375 1702.9 375C1703.5 375 1706 373.4 1708.6 371.5C1711.1 369.6 1713.7 368 1714.4 368C1716.8 368 1724 358.9 1724 355.8C1724 353.2 1723.7 353 1720.2 353C1717.6 353 1715.7 353.7 1714.5 355C1713.3 356.3 1711.4 357 1709 357C1706.9 357 1704.7 357.7 1704 358.5C1703.4 359.2 1700.9 360.2 1698.5 360.6C1696 360.9 1693.5 361.8 1692.9 362.6C1692.3 363.4 1690.1 364 1688 364C1685.9 364 1683.2 364.8 1681.9 365.9C1680.6 366.9 1678.4 368.1 1677 368.5C1675.6 368.9 1673.6 369.9 1672.5 370.6C1671.4 371.4 1669.4 372 1668 372C1666.5 372 1664.5 372.7 1663.4 373.5C1662.4 374.3 1660.7 375 1659.7 375C1658.7 375 1656.2 375.9 1654 377C1651.8 378.1 1648.8 379 1647.3 379C1645.6 379 1644 379.8 1643.2 381C1642.3 382.4 1640.9 383 1638.1 383C1635.9 383 1633.7 383.6 1633 384.5C1632.3 385.3 1630.8 386 1629.6 386C1627.2 386 1620.5 389.3 1617.5 392C1616.4 392.9 1613.6 394 1611.4 394.4L1607.2 395L1606.6 388.7C1606.3 385.3 1605.5 376.3 1605 368.8C1604.4 361.3 1603.5 353.9 1603 352.5C1602.4 351 1602 346.8 1602 343C1602 336.7 1601.1 326.8 1599 308C1598.5 303.9 1598 295.8 1597.8 290.1C1597.6 282.9 1597.1 279.5 1596.3 279.2C1595.3 278.9 1595 273.8 1595 258.1C1595 240.5 1594.8 237.1 1593.3 235.1C1592 233.2 1591.9 232.3 1592.9 230.8C1593.5 229.8 1593.7 228.4 1593.3 227.7C1592.9 227 1592.2 220.6 1591.8 213.5C1591.5 206.3 1590.7 198 1590 195C1589.3 192 1588.5 181.8 1588.1 172.5C1587.6 158.6 1587.2 155 1585.8 153C1584.2 150.9 1584 148.1 1584 132.6C1584 118.3 1583.7 114.3 1582.5 113C1581.4 111.8 1581 107.4 1580.8 92.8C1580.5 76.9 1580.2 73.8 1578.7 72.2C1577.3 70.6 1577 68.1 1577 54.7C1577 39.9 1576.9 39 1574.9 38C1573.1 37 1572.9 36 1573 30.7C1573.1 27.3 1573.2 20.1 1573.1 14.8C1573 5.69998 1572.9 5.09998 1570.8 4.49998C1566 3.09998 1565.5 3.09998 1563.7 4.09998Z" fill="white"/>
<path d="M2405.5 3.89999C2401.1 4.79999 2401.4 7.09999 2406.5 12.7C2409 15.5 2411 18.5 2411 19.3C2411 21.2 2417.8 31.4 2421.7 35.5C2423.3 37.1 2426 40.6 2427.7 43.1C2429.4 45.7 2432 49.2 2433.6 50.9C2438.2 56 2437.7 64 2432.9 64C2431.9 64 2430.6 65 2429.9 66.1C2429.3 67.3 2427.2 69.8 2425.4 71.7C2423.5 73.5 2422 75.6 2422 76.3C2422 78 2414.8 85 2413.1 85C2412.4 85 2408.3 88.4 2404.1 92.5C2399.8 96.6 2396 100 2395.5 100C2395 100 2391.6 102.9 2387.9 106.5C2384.2 110.1 2380.6 113 2379.8 113C2379 113 2376.9 114.6 2375 116.5C2373.1 118.4 2371.3 120 2370.9 120C2370.4 120 2368 121.4 2365.5 123.1C2361.5 125.8 2360.4 126.1 2356.7 125.5C2354.4 125.1 2351.2 123.7 2349.7 122.4C2348.1 121.1 2346.3 120 2345.6 120C2344.9 120 2343.5 119.1 2342.5 118C2341.5 116.9 2339.9 116 2338.9 116C2337.9 116 2336.7 115.4 2336.3 114.6C2334.9 112 2326.6 108 2322.8 108C2320.8 108 2318.7 107.4 2318.3 106.7C2316 103.1 2304.8 96.8 2302.3 97.7C2300.5 98.4 2300.7 103.6 2302.7 109C2304.9 114.7 2310.9 125.3 2312.7 126.3C2313.4 126.7 2314 127.7 2314 128.4C2314 130.5 2321.2 144.4 2323.2 146.1C2324.2 147 2325 148.5 2325 149.4C2325 150.3 2325.9 151.5 2327 152.2C2328.2 153 2329 154.6 2329 156.1C2329 157.5 2328.1 159.5 2327 160.5C2325.9 161.5 2325 163.3 2325 164.5C2325 165.8 2324.3 167.3 2323.5 168C2322.7 168.7 2322 170 2322 170.9C2322 171.9 2320.4 174.4 2318.5 176.6C2316.6 178.7 2315 181 2315 181.7C2315 182.3 2313.9 184.2 2312.5 185.8C2311.1 187.5 2310 189.6 2310 190.5C2310 191.5 2308.2 194.3 2305.9 196.7C2302.7 200.2 2301.9 201.7 2302.2 204.3C2302.6 208.1 2304.7 208.8 2309.2 206.6C2310.9 205.7 2312.9 205 2313.7 205C2314.4 205 2317 203.2 2319.4 201C2321.8 198.8 2324.3 197 2325 197C2326.7 197 2332.3 193.5 2339.5 187.9C2349.5 180.2 2354.5 177.7 2358.8 178.3C2367.9 179.6 2368.3 179.9 2395.3 206.5C2409.8 220.8 2430.3 240.8 2440.8 250.9C2451.4 261 2460 269.7 2460 270.2C2460 270.7 2462.6 273.8 2465.8 277C2471.9 283.3 2475.3 287.4 2478.5 292.6C2484.9 302.8 2490.8 311.6 2493.3 314.5C2494.8 316.3 2496 318.2 2496 318.7C2496 319.3 2496.9 320.5 2498 321.5C2499.1 322.5 2500 323.9 2500 324.5C2500 325.2 2500.7 326.4 2501.6 327.1C2502.5 327.8 2503.6 329.3 2504.1 330.5C2504.6 331.6 2506.6 334.5 2508.4 337C2510.3 339.5 2511.9 341.9 2511.9 342.3C2512 342.8 2514.3 345.8 2517.1 349L2522.1 354.8L2520.6 359.5C2519.7 362 2517.9 365.8 2516.5 367.8C2515.1 369.8 2514 372 2514 372.6C2514 374.4 2510.8 380.4 2508.8 382.1C2507.8 383 2507 384.3 2507 385.1C2507 385.8 2503.3 390.3 2498.8 395.1C2494.2 399.9 2486.5 408.5 2481.5 414.2C2476.6 419.9 2471.2 425.6 2469.7 426.9L2466.9 429.2L2461.9 426.1C2459.1 424.4 2456.2 423 2455.5 423C2454.7 423 2453.8 422.6 2453.5 422C2453.2 421.5 2450.5 419.9 2447.6 418.5C2444.7 417.1 2441.5 415.1 2440.5 414C2439.5 412.9 2438.2 412 2437.5 412C2436.8 412 2435.5 411.1 2434.5 410C2433.5 408.9 2431.8 407.8 2430.6 407.4C2429.5 407 2426.8 405.2 2424.7 403.4C2422.7 401.5 2420.4 400 2419.6 400C2418.9 400 2417.6 399.3 2416.9 398.4C2416.2 397.5 2413.1 395.1 2410 393C2407 390.9 2403.2 388 2401.5 386.5C2399.9 385 2397.3 383.6 2395.7 383.3C2391.4 382.4 2390.3 379.4 2393 375.8C2394.2 374.2 2395.4 371.2 2395.7 369.2C2396 367.2 2396.9 364.8 2397.7 363.9C2398.5 362.9 2399.3 360.5 2399.6 358.4C2399.9 356.3 2400.7 353.6 2401.5 352.4C2402.3 351.2 2403 349 2403.2 347.4C2403.6 343.6 2401.1 343.2 2397.2 346.5C2395.6 347.9 2393.4 349 2392.4 349C2391.3 349 2386.8 350.3 2382.3 351.9C2377.9 353.5 2373.9 354.6 2373.6 354.3C2373.3 354 2372 354.4 2370.8 355.2C2369.5 356 2365.8 357 2362.6 357.4C2356.9 358 2356.3 357.9 2346.5 353C2340.9 350.2 2335.2 346.8 2334 345.5C2332.7 344.1 2330.6 343 2329.4 343C2326.2 343 2322.3 341.4 2319.7 338.9C2316.9 336.2 2309.1 332.8 2307.3 333.4C2304.9 334.4 2306 338 2310.3 343.4C2315.9 350.6 2320 356.5 2322.7 361.3C2323.9 363.4 2327.6 368.4 2331 372.3L2337.1 379.5L2336.7 385.7C2336.5 389.4 2335.8 392.6 2334.9 393.7C2332.6 396.4 2329 403.8 2329 405.9C2329 407 2327.5 409.1 2325.7 410.7C2321.9 414.1 2319 419.2 2319 422.6C2319 424.4 2319.7 425.1 2321.8 425.6C2323.3 425.9 2325.2 426.4 2326.1 426.6C2327 426.9 2328.3 426.4 2329 425.5C2329.9 424.5 2332.1 424 2336.5 424C2341.4 424 2343.1 423.6 2344.5 422C2345.6 420.8 2347.6 420 2349.5 420C2351.5 420 2353.8 419 2355.6 417.5C2357.2 416.1 2359 415 2359.5 415C2361.4 415 2373.6 421.9 2375.5 424C2376.5 425.1 2377.8 426 2378.4 426C2379.1 426 2382.2 428.7 2385.5 432.1C2388.8 435.5 2393.1 439.2 2395 440.5C2400.1 443.8 2421.3 464.3 2425.5 470C2428.6 474.3 2429 475.2 2427.9 477.1C2426.9 479 2425.3 491 2424.7 500.6C2424.6 502.3 2424 504.3 2423.4 505.1C2422.7 505.9 2421.9 508.4 2421.5 510.7L2420.8 515H2425.3C2428.4 515 2430.7 514.3 2433.1 512.6C2435 511.3 2438.8 509 2441.5 507.5C2444.3 506 2447.3 503.9 2448.3 502.9C2449.3 501.8 2450.7 501 2451.6 501C2452.4 501 2453.9 500.4 2455 499.8C2456.6 498.8 2457.4 498.8 2459 499.8C2460.1 500.4 2461.6 501 2462.4 501C2463.1 501 2464.9 501.9 2466.3 503C2467.7 504.1 2469.5 505 2470.4 505C2471.2 505 2473.9 505.9 2476.2 506.9C2486.4 511.5 2495.5 513.1 2497.8 510.8C2499.4 509.2 2499.3 506.5 2497.5 505C2496.7 504.3 2496 503 2496 502C2496 501.1 2495.1 499.3 2494 498C2492.9 496.7 2492 494.7 2492 493.5C2492 492.2 2491.3 490.7 2490.5 490C2489.7 489.3 2489 488.1 2489 487.3C2489 485.3 2484.1 475.9 2481.7 473.3L2479.7 471L2482.3 465.7C2483.8 462.8 2485 459.5 2485 458.3C2485 457.1 2485.4 455.8 2486 455.5C2486.5 455.2 2488.1 452.4 2489.5 449.4C2490.9 446.4 2492.7 443.7 2493.5 443.4C2494.3 443 2495 442 2495 441.1C2495 440.1 2496.1 438.3 2497.5 437C2498.9 435.7 2500 433.9 2500 433C2500 432.2 2502.7 428.8 2506 425.5C2509.3 422.2 2512 419.2 2512 418.7C2512 418.2 2515.2 414.4 2519.1 410.2C2523.1 406 2527.9 400.5 2529.9 398C2536.1 390.3 2547.4 378.9 2550.2 377.4C2552.7 376.1 2553.4 376.2 2558.2 378.4C2561.1 379.7 2565.9 381.6 2568.8 382.5C2571.7 383.5 2574.3 384.6 2574.6 385.1C2574.9 385.6 2576 386 2577.2 386C2578.3 386 2582.9 387.2 2587.4 388.6C2602.4 393.4 2605.3 394 2606.4 392.1C2607.1 391 2603.4 383.8 2601.5 382.7C2600.7 382.3 2600 381 2600 379.9C2600 378.7 2599.1 376.6 2598 375.2C2591.4 366.6 2589 362.8 2589 361C2589 359.9 2587.2 356.7 2585 353.8C2582.7 350.7 2580.9 347.2 2580.8 345.5C2580.5 339.7 2581.1 336.5 2583 334.5C2584.1 333.3 2585 331.6 2585 330.6C2585 329.6 2585.9 327.7 2587 326.3C2588.1 324.9 2589 322.4 2589 320.8C2589 319.2 2589.7 317.2 2590.5 316.4C2591.3 315.5 2592 313.2 2592 311.2C2592 309.1 2592.9 305.8 2594 303.7C2595.1 301.7 2596 299.1 2596 298C2596 295.2 2592.9 295.4 2590 298.5C2588.7 299.9 2587.1 301 2586.3 301C2585.6 301 2581.2 304.4 2576.6 308.5C2572 312.6 2567.7 316 2567.1 316C2566.5 316 2564.2 317.6 2562 319.6C2558 323.2 2557.9 323.3 2554.7 321.7C2552.9 320.8 2550.7 319.9 2549.7 319.6C2548.8 319.3 2547.5 317.9 2547 316.5C2546.5 315.1 2545.2 313.7 2544.3 313.3C2541.5 312.4 2520 290.7 2520 288.9C2520 288.1 2518.9 286.3 2517.5 285C2516.1 283.7 2515 281.9 2515 280.9C2515 280 2514.3 279 2513.5 278.6C2512.7 278.3 2510.8 275.5 2509.4 272.3C2507.9 269.1 2506.4 266.3 2505.9 266.2C2505.4 266 2505 265.2 2505 264.5C2505 263.8 2504 261.9 2502.7 260.3C2501.4 258.8 2499.4 255.5 2498.3 253C2497.2 250.5 2495.3 247.6 2494.1 246.6C2492.9 245.5 2492 244.3 2492 243.8C2492 241.7 2474.2 221.1 2464 211.3C2450.2 198.1 2443.3 192 2442.4 192C2440.8 192 2416 166.5 2416 164.9C2416 164 2415.3 162.7 2414.5 162C2413.7 161.3 2413 160.3 2413 159.8C2413 159.3 2411.5 156.5 2409.6 153.7C2405.6 147.7 2401 138.7 2401 137.1C2401 136.4 2401.9 134.9 2403.1 133.7C2404.2 132.5 2405.4 130.3 2405.7 128.8C2406 127.3 2407.3 125.1 2408.6 123.9C2409.9 122.7 2411 121.1 2411 120.5C2411 119.9 2412.6 117.9 2414.5 116C2416.4 114.1 2418 111.9 2418 111C2418 109.2 2428 99 2429.8 99C2430.5 99 2433.7 96.6 2437 93.7C2445.5 86.2 2449.6 83 2450.7 83C2451.2 83 2452.9 81.6 2454.5 80C2456.1 78.3 2457.7 77 2458 77C2458.4 77 2463.1 81.3 2468.6 86.5C2474 91.7 2478.9 96 2479.5 96C2480.8 96 2492 107.2 2492 108.5C2492 109.1 2497.1 114.3 2503.3 120C2525.3 140.5 2528.5 143.5 2528.9 143.7C2529.1 143.8 2528.5 145.5 2527.6 147.4C2526.6 149.5 2526 153.4 2526 157.9C2526 162.6 2525.3 166.6 2523.9 170.1C2522.8 173 2522 176.9 2522.2 178.9L2522.5 182.5L2528.4 182.2C2531.7 182.1 2534.9 181.5 2535.6 180.9C2537.7 179.2 2548.2 173 2549 173C2549.4 173 2551.7 171.3 2554.1 169.2C2559.5 164.6 2562.1 163.4 2568.1 163.1C2571.2 162.9 2573 163.4 2573.9 164.4C2575 165.6 2577.3 166 2584.5 166C2589.7 166 2594.5 165.7 2595.4 165.4C2596.6 164.9 2597 163.3 2597 159C2597 155.7 2596.6 152.9 2596.1 152.5C2595.5 152.2 2594.1 149.9 2592.8 147.4C2591.6 144.9 2589.4 141.8 2587.9 140.6C2584.3 137.6 2583.1 134.9 2584.1 132.5C2584.5 131.4 2584.9 128.5 2584.9 126C2585 123.5 2585.8 120.2 2586.8 118.5C2589.1 114.7 2590.2 107.4 2588.6 106.2C2586.2 104.3 2581.4 104.2 2576 106.1C2573 107.1 2569.9 108 2569 108C2568.2 108 2565.2 109.5 2562.4 111.2C2555.1 115.9 2552.9 117.2 2552.5 116.8C2552.3 116.6 2550.3 114.9 2547.9 113C2545.6 111.1 2540.8 106.6 2537.1 103.2C2533.5 99.7 2529.4 96.1 2528 95.2C2526.6 94.2 2522.7 90.8 2519.2 87.5C2515.7 84.2 2512.2 81.2 2511.5 80.7C2510.7 80.3 2507.3 77.2 2503.8 73.9C2500.3 70.6 2494.7 65.6 2491.3 62.8C2487.8 60 2484.3 56.6 2483.4 55.3C2482 53 2482 52.7 2484.2 49.7C2485.5 47.9 2487.8 44.5 2489.2 42C2490.6 39.5 2492.7 36.6 2493.9 35.6C2495.1 34.5 2496 32.8 2496 31.7C2496 30.6 2497.1 27.4 2498.4 24.6C2500.4 20.6 2500.7 18.7 2500.2 15.5C2499.3 10.8 2496.5 9.69999 2493.5 13C2492.4 14.2 2490.4 15 2488.5 15C2486.7 15 2484.1 15.9 2482.7 17C2481.3 18.1 2479 19 2477.6 19C2476.1 19 2474.5 19.8 2473.8 21C2473 22.2 2471.4 23 2469.7 23C2467.9 23 2465.8 24.1 2463.8 26.1C2461 28.8 2460.5 29 2457.9 28C2456.4 27.3 2454.4 26 2453.4 24.9C2452.5 23.9 2451.1 23 2450.3 23C2449.5 23 2447.2 22.1 2445 21C2442.8 19.9 2439.5 19 2437.6 19C2435.1 19 2433.8 18.4 2433 17C2432.3 15.7 2430.9 15 2428.8 15C2427.1 15 2425 14.2 2424.1 13.2C2421.3 10.1 2415.6 6.29999 2412.8 5.59999C2411.2 5.29999 2410 4.49999 2410 3.99999C2410 2.89999 2410 2.89999 2405.5 3.89999Z" fill="white"/>
<path d="M1785.8 9.09994C1784.4 9.89994 1784 11.4999 1784 16.9999C1784 20.7999 1783.4 25.8999 1782.6 28.1999C1781.8 30.5999 1780.8 35.8999 1780.4 39.9999C1780.1 44.0999 1779.3 48.0999 1778.7 48.7999C1778 49.6999 1778.1 50.7999 1779 52.4999C1780.1 54.5999 1780.1 55.1999 1778.7 56.7999C1777.5 58.0999 1776.8 61.3999 1776.4 68.0999C1775.9 74.3999 1775.3 77.7999 1774.4 78.2999C1772.5 79.3999 1772.7 80.9999 1774.8 82.5999C1776.2 83.6999 1776.3 84.1999 1775.2 85.6999C1772.6 89.5999 1771.9 92.7999 1772.2 99.7999C1772.3 104.5 1772 107.4 1771.3 107.8C1768.8 109.4 1763 117.6 1763 119.7C1763 121.4 1762.1 122.1 1759.4 122.9C1757.5 123.4 1754 125.4 1751.7 127.2C1749.4 129.1 1745.1 132.3 1742.2 134.4C1739.2 136.4 1735.4 139.7 1733.7 141.6C1731.9 143.5 1729.9 145 1729.2 145C1727.8 145 1722.9 148.3 1719.8 151.2C1718.8 152.2 1717.4 153 1716.8 153C1713.6 153.1 1708 160.1 1708 164C1708 166 1713.2 170.1 1714.9 169.4C1715.8 169 1719 168.4 1722.1 168C1725.1 167.6 1728.5 166.8 1729.6 166.3C1730.6 165.7 1736.7 164.7 1743 164C1749.3 163.3 1755.5 162.1 1756.7 161.4C1758 160.6 1761.6 160 1765.3 160C1770.8 160 1772 160.3 1774 162.5C1776.1 164.8 1776.2 165.3 1775.2 168.7C1774.5 170.8 1773.5 183.7 1773 197.5C1771.5 234.6 1770.2 255.1 1769 258.9C1768.5 260.8 1768.3 264.1 1768.6 266.2C1769.2 269.6 1769 270.1 1766.3 271.6C1764.7 272.6 1762.6 274.6 1761.7 276.2C1760.8 277.7 1759.5 279 1758.7 279C1756.7 279 1754.9 281.5 1754.1 285.3C1753.6 287.4 1752.5 288.9 1750.7 289.8C1748.1 291 1743 296.8 1743 298.5C1743 298.9 1741.9 300.7 1740.7 302.4C1734.6 310.4 1737.4 314.6 1749.4 315.7C1754.1 316 1757.7 316.9 1758.6 317.8C1759.5 318.6 1761 319 1762.5 318.6C1763.9 318.2 1765.2 318.5 1765.6 319.2C1766 319.9 1766.5 327.2 1766.7 335.5C1766.8 343.7 1767.2 362.4 1767.5 377C1767.9 396.1 1767.7 404.1 1766.9 405.7C1765.8 407.7 1766 419.5 1767.6 441L1768.2 448.5L1760.8 456C1750.7 466.5 1748.3 469.3 1746.9 472.4C1746.2 473.8 1744.8 475.2 1743.8 475.6C1742.8 475.9 1740.9 477.8 1739.6 479.8C1738.3 481.8 1735.3 485.2 1732.9 487.4C1730 489.9 1728.3 492.3 1728 494.4C1727.7 496.5 1726.9 497.6 1725.5 497.8C1722.7 498.3 1721 500.8 1721 504.7C1721 508.3 1722 508.9 1724 506.5C1724.7 505.7 1726.9 505 1729 505C1731.1 505 1733.3 504.4 1733.9 503.6C1734.5 502.9 1736.9 502 1739.1 501.6C1741.3 501.2 1744.1 500.3 1745.3 499.6C1746.5 498.8 1749.7 497.8 1752.3 497.5C1755.3 497 1759.1 495.4 1762.2 493.4C1768.7 489 1774.1 488.7 1776.7 492.6C1777.6 494.1 1778.3 496.6 1778.2 498.3C1777.7 504.6 1784.7 506.9 1792.6 503.1C1797.4 500.7 1804.3 493.7 1807 488.6C1808 486.4 1809.2 482 1809.6 478.7C1810.2 473.5 1810.8 472.3 1814.5 468.6C1822.6 460.7 1831.8 453 1833.2 453C1834 453 1835.7 451.9 1837 450.5C1838.3 449.1 1839.9 448 1840.6 448C1841.2 448 1842.3 447.3 1843 446.5C1843.7 445.7 1844.9 445 1845.7 445C1846.6 445 1849.3 443.5 1851.9 441.8C1857.9 437.6 1860 436.2 1862.6 435.1C1863.8 434.6 1865 433.4 1865.3 432.6C1865.7 431.7 1866.6 431 1867.4 431C1869.6 431 1877.8 425.2 1879.7 422.4C1880.5 421.1 1882 420 1883 420C1884 420 1885.6 419.3 1886.4 418.4C1887.3 417.6 1890 416.2 1892.5 415.4C1895 414.5 1897 413.4 1897 412.9C1897 411.3 1904.1 405 1905.9 405C1906.9 405 1908.5 404.1 1909.5 403C1910.5 401.9 1911.7 401 1912.2 401C1912.7 401 1916.1 398.6 1919.8 395.7C1923.5 392.8 1927.7 389.9 1929.1 389.3C1930.6 388.7 1933.3 386.8 1935.1 385.2C1937 383.6 1941.4 380.5 1945 378.5C1948.6 376.4 1953.4 372.9 1955.8 370.7C1959.2 367.3 1960 365.9 1960 362.9C1960 358 1957.6 357 1955.5 361C1954.5 363 1953.2 364 1951.6 364C1950.4 364 1948.5 364.9 1947.5 366C1946.5 367.1 1944.4 368 1942.9 368C1940.3 368 1931.7 371.9 1929.6 374.1C1929 374.6 1928 375 1927.3 375C1926.6 375 1923.4 376.8 1920.3 379C1917.1 381.2 1913.4 383 1912.1 383C1910.8 383 1907.9 384.5 1905.6 386.3C1902.5 388.9 1900.2 389.8 1896.1 390.3C1891.9 390.8 1889.6 391.8 1885.4 395.1C1882.4 397.4 1880 399.6 1880 400.1C1880 400.5 1878.3 401.2 1876.3 401.5C1874.2 401.8 1871.2 402.7 1869.7 403.5C1868.1 404.3 1866.3 405 1865.5 405C1864.8 405 1863.7 405.7 1863 406.5C1862.3 407.3 1859.9 408.5 1857.6 409.1C1853.6 410.2 1848 412.4 1845 414.2C1844.2 414.6 1842.8 415.3 1842 415.6C1839.1 416.7 1836.4 418.1 1827.5 422.9C1818.3 428 1814.1 428.9 1809.7 426.9C1807 425.7 1806 422.2 1806 414C1806 411.4 1805.6 409 1805 408.4C1803.6 407 1803.6 340 1804.9 338.7C1805.5 338.1 1806 333.7 1806 328.9C1806 322.8 1806.4 319.9 1807.4 319.1C1808.3 318.4 1809 314.6 1809.5 308.5C1810.3 298 1812.2 294 1816.6 294C1819 294 1819.6 293.8 1825.8 290.7C1827.7 289.8 1829.8 289 1830.6 289C1832.9 289 1846.1 281.9 1846.7 280.4C1847 279.6 1848.7 279 1850.5 279C1852.4 279 1854.2 278.5 1854.6 277.9C1854.9 277.3 1857.2 276 1859.5 275C1861.9 274 1864.6 272 1865.6 270.6C1866.5 269.2 1868 268 1869 268C1869.9 268 1871.5 267.1 1872.5 266C1873.9 264.4 1875.1 264.1 1877.5 264.6C1880.2 265.1 1880.8 264.8 1881.3 263.1C1881.6 261.9 1882.6 261 1883.7 261C1884.8 261 1886.7 259.9 1888 258.5C1890.1 256.3 1890.2 255.6 1889.2 254C1888.5 252.9 1888 251.3 1888 250.5C1888 249.3 1886.2 249 1877.8 249C1868.7 249 1863.7 249.8 1859 251.9C1858.2 252.3 1851.2 252.7 1843.5 252.9C1833.3 253 1828.9 253.5 1827.3 254.6C1824.7 256.2 1821.4 256.4 1820.5 255C1820.2 254.4 1818.8 254 1817.5 254C1816.2 254 1814.8 253.6 1814.5 253C1814.2 252.5 1813.9 245.1 1813.9 236.6C1814 224.2 1813.7 220.8 1812.5 219.6C1811.3 218.5 1811 215.4 1811 205.7C1811 196.7 1810.6 192.9 1809.7 192.2C1808.1 190.8 1808.2 180.8 1809.9 180.2C1810.5 180 1811 177.5 1811 174.3C1811 170.7 1811.5 168.3 1812.6 167.3C1813.7 166.2 1814 164.7 1813.6 162.8C1813.3 161.1 1813.6 159 1814.4 157.7C1815.2 156.5 1815.9 153.2 1815.8 150.5C1815.8 147.7 1815.9 145 1815.9 144.3C1816.1 142.3 1821 138.2 1824 137.7C1825.5 137.4 1828.9 135.8 1831.6 134.1C1834.3 132.5 1838.4 130.2 1840.8 129C1843.1 127.8 1846.9 125 1849.2 122.9C1852 120.3 1854.3 119 1856.1 119C1857.7 119 1859.2 118.5 1859.5 118C1859.9 117.4 1861.9 116.1 1864 115C1866.1 113.9 1868.1 112.1 1868.5 111C1868.8 109.9 1870.3 108.7 1871.8 108.3C1873.3 108 1876.6 106.2 1879.2 104.3C1881.8 102.5 1885 101 1886.3 101C1887.7 101 1890.3 99.3999 1892.8 96.9999C1895 94.7999 1897.7 92.9999 1898.7 92.9999C1899.8 92.9999 1902.1 91.3999 1904 89.4999C1905.9 87.5999 1908.4 85.9999 1909.5 85.9999C1910.7 85.9999 1912.4 85.1999 1913.4 84.0999C1914.3 83.0999 1917 81.3999 1919.3 80.3999C1921.6 79.3999 1924.1 77.6999 1924.8 76.7999C1925.5 75.7999 1927.2 74.9999 1928.5 74.9999C1929.8 74.9999 1931.4 74.1999 1931.9 73.1999C1932.4 72.1999 1934.8 70.3999 1937.3 69.1999C1939.8 67.9999 1942.3 66.2999 1943 65.4999C1943.7 64.6999 1945 63.9999 1946 63.9999C1946.9 63.9999 1948.7 63.0999 1950 61.9999C1951.3 60.8999 1952.7 59.9999 1953.1 59.9999C1954.1 59.9999 1960.3 55.7999 1962.5 53.5999C1963.4 52.6999 1964.6 51.9999 1965.1 51.9999C1966.6 51.9999 1971.2 41.3999 1970.8 38.7999C1970.5 36.2999 1969.9 36.1999 1961.1 37.7999C1958.2 38.2999 1955.5 39.1999 1955.1 39.6999C1953.5 42.2999 1947.2 44.9999 1942.9 44.9999C1939.6 44.9999 1937.8 45.5999 1936.5 46.9999C1935.5 48.0999 1933.5 48.9999 1932 48.9999C1930.4 48.9999 1928.7 49.7999 1927.9 50.9999C1927 52.2999 1925 53.1999 1922.5 53.4999C1916.9 54.0999 1910.9 56.3999 1909.8 58.3999C1909.2 59.4999 1907.5 59.9999 1904.7 59.9999C1901.7 59.9999 1899.9 60.5999 1898.7 61.9999C1897.8 63.0999 1895.9 63.9999 1894.5 63.9999C1893.1 63.9999 1890.3 64.8999 1888.3 65.9999C1886.2 67.0999 1883.9 67.9999 1883.2 67.9999C1881.1 67.9999 1873.5 71.6999 1872 73.4999C1871.2 74.4999 1869.1 74.9999 1865.9 74.9999C1863.3 74.9999 1860.8 75.3999 1860.5 75.9999C1860.2 76.4999 1858.8 76.9999 1857.4 76.9999C1856.1 76.9999 1855 77.3999 1855 77.9999C1855 78.4999 1854.4 78.9999 1853.6 78.9999C1852.9 78.9999 1851.7 79.6999 1851 80.4999C1850.3 81.2999 1848.8 81.9999 1847.5 81.9999C1846.3 81.9999 1844.5 82.8999 1843.5 83.9999C1842.5 85.0999 1840.5 85.9999 1839.1 85.9999C1837.7 85.9999 1835.2 86.8999 1833.5 87.9999C1831.6 89.1999 1828.8 89.9999 1825.9 89.9999C1823.4 89.9999 1820.5 90.6999 1819.4 91.4999C1814.2 95.3999 1810.6 91.2999 1809.6 80.3999C1809.2 76.1999 1808.3 71.7999 1807.5 70.5999C1806.7 69.4999 1805.9 66.0999 1805.6 63.1999C1805.4 60.1999 1804.4 56.9999 1803.6 56.0999C1802.7 55.0999 1802 52.6999 1802 50.6999C1802 48.6999 1801.3 46.3999 1800.4 45.4999C1799.3 44.3999 1798.7 41.9999 1798.6 38.4999C1798.5 34.9999 1797.9 32.4999 1796.7 31.2999C1795.7 30.0999 1795 27.6999 1795 25.2999C1795 22.5999 1794.4 20.6999 1793.1 19.4999C1791.8 18.3999 1791 16.1999 1790.8 13.0999C1790.5 8.19994 1789.1 7.09994 1785.8 9.09994Z" fill="white"/>
<path d="M427.3 16.6999C428.1 20.9999 431 28.2999 432.6 30.0999C433.4 30.8999 434 32.2999 434 33.1999C434 33.9999 434.9 35.6999 436 36.9999C437.1 38.2999 438 40.0999 438 41.0999C438 42.0999 438.5 43.1999 439 43.4999C439.6 43.7999 441.6 47.3999 443.5 51.2999C445.4 55.2999 448.2 60.9999 449.8 63.9999C451.4 66.9999 453.3 70.7999 454.1 72.2999C454.8 73.8999 456.5 76.2999 457.7 77.5999C459 78.9999 460 80.8999 460 81.8999C460 82.8999 460.9 84.4999 462 85.4999C463.1 86.4999 464 87.9999 464 88.7999C464 89.5999 465.2 92.6999 466.6 95.5999L469.1 100.8L464.9 108.7C459.4 118.9 459.3 119 458.1 122.5C457.5 124.1 454.7 127.9 452 130.7C449.2 133.6 447 136.6 447 137.4C447 138.1 446.3 139.4 445.4 140.1C443.6 141.6 439.5 147.5 437 152.1C436.2 153.6 433.1 157.3 430.3 160.3C427.4 163.4 425 166.3 425 166.8C425 167.4 422.3 170.7 418.9 174.1C415.6 177.6 412.2 181.6 411.5 183C410.8 184.4 408.3 187.3 406.1 189.5C403.8 191.6 402 193.9 402 194.5C402 195.1 400.9 196.7 399.5 198C398.1 199.3 397 200.9 397 201.6C397 202.3 394.8 205.3 392 208.3C388.8 211.8 387 214.7 387 216.3C387 218.1 386.2 219.1 384 220C382.4 220.7 381 221.6 381 222.1C381 222.6 379 223 376.5 223C372.6 223 371.8 222.6 371 220.6C370.5 219.3 369.1 217.5 367.9 216.7C366.7 215.8 363 212.1 359.7 208.3C356.4 204.6 353 201.2 352.1 200.9C351.2 200.5 349.1 198.3 347.5 195.9C345.9 193.5 342.5 189.4 340 186.9C337.5 184.3 334.9 181.6 334.3 180.9C329.5 175.6 325.7 173.6 323.1 174.9C320.5 176.4 320 178.1 320 187C320 192.7 320.4 195.1 321.5 196C322.3 196.7 323 198.2 323 199.4C323 202.9 326.3 211.1 328.2 212.1C329.4 212.7 330 214.2 330 216.4C330 218.2 330.9 220.9 332 222.3C333.1 223.7 334 225.7 334 226.8C334 227.8 334.9 229.5 336 230.5C337.1 231.5 338 233.4 338 234.8C338 236.1 338.6 238.4 339.3 239.8C343.4 247.9 345 251.7 345 253.1C345 254 345.9 255.5 347 256.5C348.1 257.5 349 259.1 349 260.2C349 261.2 349.9 262.9 351 264C352.5 265.5 353 267.3 353 271.6C353 276.7 352.7 277.5 349.4 280.8C347.4 282.8 345.6 285.3 345.4 286.4C345.2 287.4 344.1 289.3 343 290.5C341.9 291.7 341 293 341 293.4C341 294.3 337.3 299.5 333.8 303.4C332.2 305.1 331 306.9 331 307.5C331 310.1 319.5 328.9 315 333.8C313.8 335 312.4 337.3 311.9 338.9C311.3 340.5 310 342 309 342.3C307.4 342.7 307.1 343.6 307.4 347.4C307.5 350.1 308.3 352.8 309.3 353.7C310.9 355.3 311.2 355.2 314.3 352.2C316.1 350.4 318.5 349 319.6 349C320.7 349 324 346.5 327 343.5C330 340.5 332.8 338 333.3 338C334.2 338 339.2 334.3 349.1 326.5C351.9 324.3 355.8 321.6 357.6 320.4C359.5 319.3 362.5 317 364.3 315.4C367 312.8 372.4 308.4 379.3 303.1C380.9 301.8 381.4 302 384.3 304.6C386.1 306.3 389.4 308.9 391.7 310.4C396.2 313.4 431.1 349.1 432.1 351.9C432.5 352.8 434.2 354.8 435.9 356.4C437.6 358.1 439 360.2 439 361.1C439 362.1 439.4 363.1 439.9 363.5C441.1 364.2 444 369.9 444 371.5C444 372.2 444.7 373.3 445.5 374C446.4 374.7 446.8 376.1 446.5 377C446.2 378 446.6 379.5 447.5 380.3C448.3 381.2 449 382.5 449 383.3C449 384.1 449.7 385.3 450.5 386C451.3 386.7 452 388.1 452 389.1C452 390.2 453.1 392.8 454.5 395C455.9 397.2 457 399.5 457 400.1C457 400.8 458 402.7 459.3 404.4C466.9 414.8 467 425.6 459.7 433.4C457.7 435.6 456 438 456 438.8C456 439.6 454.3 442.2 452.3 444.6C445.9 451.8 442 457.2 442 458.5C442 459.2 439.5 462 436.5 464.7C433.4 467.3 430.6 470.6 430.3 471.9C430 473.2 429.1 475 428.3 475.9C423.1 481.7 419 488.2 419 490.3C419 492.1 417.3 494.4 413 498.3C409.7 501.4 407 504.3 407 504.8C407 505.2 406.1 506.5 405.1 507.7C401 512.1 398.9 518.2 401.1 519.5C402.2 520.2 413 515 413 513.7C413 513.3 413.8 513 414.8 513C415.8 513 418.4 511.2 420.5 509C422.6 506.8 425 505 425.6 505C426.3 505 427.5 504.4 428.2 503.7C432.9 499.3 440 494 441.4 494C442.2 494 444.6 492.5 446.5 490.6C448.4 488.7 451.6 486.6 453.5 486C455.5 485.3 458 483.5 459.2 481.9C460.4 480.3 461.9 479 462.5 479C463.1 479 464.6 478.1 465.8 477C467 475.9 468.5 475 469.3 475C470.1 475 471.5 474.1 472.5 473C473.4 472 476 470.2 478.1 469.1L481.9 467.1L483.9 470.3C485.1 472.1 489.4 476.9 493.5 481C497.6 485.1 501 489.2 501 490.1C501 490.9 503.4 494.3 506.3 497.6C509.2 500.8 512.6 505.1 513.7 507C514.9 509 517 511.6 518.4 512.9C520.7 515.1 521.5 515.2 524.8 514.4L528.5 513.5L528.8 497.1C528.9 486.8 528.7 480.3 528 479.6C527.5 479.1 527 475.1 527 470.9C527 465.3 526.6 462.9 525.5 462C524.5 461.2 524 458.9 524 455.4C524 452.5 523.6 449.9 523.1 449.5C522.6 449.2 521.8 446 521.4 442.3C521 438.6 520.1 434.1 519.4 432.4C518.2 429.4 518.3 428.9 520.9 425.4C522.5 423.2 524.9 420.4 526.4 419.1C527.8 417.7 529 416.2 529 415.6C529 415 531 412.5 533.5 410C535.9 407.5 538.9 403.7 540.1 401.5C542.4 397.2 543.3 396.1 550.4 388.9C553 386.4 555 384 555 383.6C555 383.1 557.3 380.2 560 377C562.8 373.8 565 370.7 565 370.1C565 369.5 566.1 368.3 567.5 367.4C568.9 366.5 570 365.2 570 364.4C570 363.7 571 362.1 572.3 360.8C573.5 359.5 575.4 357.1 576.5 355.4C580.5 349.1 585 342.5 585.8 341.5C586.6 340.5 595.7 323.8 599.6 316C603.4 308.5 603.2 308.6 607.5 310.9C611 312.7 622.4 322.9 636.1 336.5C639.2 339.5 642.2 342 642.8 342C643.4 342 648.1 346.3 653.3 351.6L662.7 361.3L665.3 359.5C669.2 357 668.9 353 664.4 348C661.7 345 660.9 343.4 661.4 341.7C661.7 340.3 661.3 338.4 660.2 337C658.4 334.5 656.5 331 651.6 321.2C650.1 318.1 648.4 314.8 647.9 314C647.4 313.2 646.5 311.4 645.9 310C645.3 308.6 644.4 306.8 643.9 306C643.4 305.2 642.4 303.1 641.6 301.4C640.8 299.7 639.7 297.9 639.1 297.6C638.5 297.2 638 295.8 638 294.5C638 293.2 637.3 291.4 636.4 290.6C635.6 289.7 633.9 286.4 632.8 283.2C631.7 280.1 629.9 276.5 628.8 275.3C627.5 273.9 626.2 270.3 625.4 265.4C624.1 258.1 624.2 257.5 626 254.5C627.1 252.7 628 250.4 628 249.3C628 248.1 628.7 246.7 629.5 246C630.3 245.3 631 243.7 631 242.4C631 241.1 632.1 238.1 633.5 235.6C634.9 233.1 636 230.3 636 229.3C636 228.2 636.4 227 636.8 226.4C637.3 225.9 638.3 223.9 639 222C639.7 220.1 642.6 213.8 645.4 207.9C648.2 202.1 651.1 195.8 651.8 193.9C652.5 192.1 653.8 189 654.6 187.2C655.4 185.4 656 182.2 656 180C656 177.9 656.4 175.9 656.9 175.6C657.4 175.2 658.1 173.1 658.5 170.7C658.9 168.4 660.1 165.4 661.1 164.1C663.3 161.4 663.8 151.6 661.8 150.4C660.5 149.5 654 156.7 654 159.1C654 159.9 652.9 161.7 651.5 163C648.7 165.7 642 177.1 642 179.2C642 180 640.7 181.9 639.2 183.6C637.6 185.2 635.6 188.3 634.5 190.5C633.5 192.7 632.1 194.9 631.4 195.3C630.6 195.7 630 196.5 630 197C630 197.4 628.4 200.2 626.5 203.1C624.6 206.1 623 209 623 209.7C623 210.4 622.6 211 622.2 211C621.7 211 619.9 213.9 618.1 217.4C616.3 221 614.3 224.4 613.5 225C612.8 225.6 611.9 227.2 611.6 228.6C610.8 231.4 606.2 237 604.5 237C603.3 237 597.5 230.4 594.5 225.5C593.4 223.8 591.6 221.2 590.3 219.7C589 218.1 588 216.1 588 215.2C587.9 214.3 586.8 212.1 585.5 210.5C584.1 208.8 582 204.3 580.8 200.5C578.3 192.5 570.2 175.6 566 169.6C564.5 167.3 561.5 164.7 559.4 163.6C557.2 162.6 554.2 161.1 552.5 160.2C548.9 158.4 541 151 541 149.5C541 148.9 539 146.4 536.5 144C534 141.6 532 138.8 532 137.9C532 137 531.3 135.7 530.5 135C529.7 134.3 529 133.2 529 132.5C529 131.9 528.1 130.5 527 129.5C525.9 128.5 523.9 125.4 522.5 122.6C521.1 119.8 519.2 116.1 518.3 114.5C515.8 110 515 108.1 515 107.1C515 106.7 516.8 104.3 519 101.9C521.2 99.4999 523 96.5999 523 95.3999C523 94.1999 524.7 91.0999 526.8 88.3999C530.2 83.8999 534.3 77.0999 537.3 70.9999C537.9 69.5999 539.3 67.8999 540.2 67.1999C541.2 66.4999 542 64.8999 542 63.5999C542 62.2999 542.9 60.4999 544 59.4999C545 58.5999 546.7 55.4999 547.6 52.5999C548.5 49.7999 550.8 45.6999 552.5 43.4999C554.3 41.2999 556.1 38.4999 556.4 37.2999C556.8 36.0999 558.2 33.1999 559.5 30.7999C560.9 28.3999 562.5 25.3999 563.2 23.9999C563.8 22.5999 565.3 20.4999 566.4 19.1999C568.2 17.1999 568.2 16.7999 567 15.9999C564.4 14.2999 563.3 14.8999 556.8 20.9999C553.4 24.2999 550.1 26.9999 549.7 26.9999C548.5 26.9999 538.6 35.0999 537.6 36.8999C536.2 39.2999 532.9 41.9999 531.3 41.9999C529.8 41.9999 522.3 47.9999 516.6 53.5999C514.9 55.2999 511.6 57.6999 509.3 58.8999C506.9 60.0999 505 61.4999 505 61.9999C505 62.4999 503.8 63.2999 502.3 63.5999C500.7 63.9999 498.7 64.8999 497.8 65.7999C496.7 66.6999 495.2 66.9999 493.5 66.5999C492.1 66.1999 484.3 59.6999 476 51.9999C467.8 44.2999 460.5 37.9999 459.8 37.9999C459.1 37.9999 454.9 34.4999 450.6 30.0999C446.3 25.7999 440.8 21.2999 438.5 20.0999C436.1 18.8999 433.8 16.9999 433.5 15.9999C433 14.5999 432 13.9999 429.8 13.9999C427 13.9999 426.8 14.1999 427.3 16.6999ZM498.8 153.6C506.4 164.4 512.9 173.5 513.7 174.5C517 178.2 529.4 194.6 533.1 200C535.5 203.6 537.8 206.9 538.2 207.5C541 211.3 557.6 237.3 562.5 245.4C565.7 250.9 570.3 257.7 572.6 260.6C577.4 266.5 580.4 272 581.4 276.7C581.9 279 581.5 281.3 579.6 285.5C578.2 288.5 577 291.2 577 291.5C577 291.7 574.8 295.7 572 300.5C569.3 305.3 567 309.3 567 309.6C567 310.1 546.9 340.3 546.1 341C545.8 341.3 543.9 343.5 542 346C534 356.4 519 372.2 508.5 381.1C499.4 388.9 499.8 389 494 379.3C492.1 376.1 488.1 370.2 485 366.2C482 362.2 478.2 356.2 476.5 353C474.9 349.8 471.9 345.3 470 343C468.1 340.7 465.3 336.9 463.8 334.6C462.3 332.4 460.7 330 460.2 329.5C459.8 328.9 456.5 324.7 453 320C449.4 315.3 446 310.8 445.3 310C444.6 309.2 441.2 304.6 437.8 299.9C434.3 295.1 426.9 285.2 421.3 277.7C415.8 270.3 410.6 263.4 409.9 262.3C408.8 260.5 409.6 259.1 416.6 249.7C420.9 243.9 425 238.4 425.7 237.3C434.4 224.1 441.5 213.8 444 211C451.3 202.7 462.6 185.6 472.6 167.5C478.5 156.9 484.9 146.3 486.8 144.1L490.3 139.9L492.5 143.8C493.7 145.9 496.5 150.3 498.8 153.6Z" fill="white"/>
<path d="M743.7 16.7C743.3 17 743 28 743 40.9C743 60.1 742.7 65 741.5 66.7C740.7 67.8 740.1 70 740.1 71.6C740 105.6 738.7 170 738 171.5C736.4 175.1 736.1 180.2 735.5 211.3C735.2 232.4 734.6 242.6 733.8 243.9C732.9 245.4 733 246.9 734.3 251C736.4 257.6 736.4 258.2 734.1 260.9C732.4 262.9 732.2 265.4 732.1 301.8C731.9 334.4 731.7 340.9 730.4 342.8C729.5 344.2 728.9 347.3 729 350.8C729 353.9 728.8 373.1 728.4 393.5C728 423.9 727.6 430.7 726.4 431.6C725.6 432.3 725 434.5 725 436.9C725 439.8 724.4 441.5 723 442.7C721.9 443.7 721 445.3 721 446.4C721 449.1 715.2 454 711.9 454C710.5 454 708.7 454.7 708 455.5C707.3 456.3 706 457 705.1 457C704.2 457 702 457.9 700.2 459C698.4 460.1 696.3 461 695.5 461C694.8 461 692.4 462.6 690.3 464.5C688.2 466.5 685.5 468.3 684.3 468.6C682.6 469.1 682 470 682 472C682 477.7 683.4 478.1 702.9 477.9C719.6 477.8 720.9 477.9 725.5 480.1C729.3 481.9 730.7 483.2 731.4 485.5C731.9 487.1 732.9 489.7 733.6 491.2C734.4 492.6 735 494.5 735 495.3C735 496.1 735.9 497.9 737 499.2C738 500.6 739.2 503.7 739.6 506.1C740 508.5 740.9 511.4 741.6 512.5C742.4 513.6 743 515.4 743 516.6C743 517.7 743.9 519.5 745 520.5C746.3 521.7 747 523.6 747 526.1C747 530.8 749.1 533 753.5 533C758.3 533 760.8 529.3 759 525C757.9 522.5 758.1 521.6 759.9 518.7C761.1 516.8 762 513.9 762 512.2C762 510.5 762.4 508.8 763 508.5C763.5 508.2 764 506.9 764 505.7C763.9 498.4 765.7 488.2 767.3 486.6C768.9 484.9 769.7 477.1 769.1 468.9C769 467.5 769.6 465.7 770.5 465C771.3 464.3 772 463.3 772 462.8C772 459.5 775.3 451.1 776.8 450.7C777.7 450.4 780.8 448.7 783.5 447.1C786.3 445.4 789.4 443.6 790.5 443.1C792.8 442.1 798.7 437.1 803.9 431.9C805.9 429.9 808.4 428 809.5 427.6C810.6 427.3 812.9 425.7 814.5 424C816.2 422.4 818.2 420.4 819 419.5C824 414.5 830.9 409 832.3 409C833.1 409 835.5 406.7 837.5 404C839.5 401.2 842.1 398.7 843.3 398.4C844.5 398.1 848.7 394.7 852.5 390.9C856.4 387 861.4 382.7 863.7 381.3C866 380 869.7 377.1 871.9 374.8C875.3 371.5 875.8 370.5 874.9 368.9C874.2 367.4 873.3 367.1 871.2 367.6C867.5 368.5 865 369.9 865 371C865 371.6 864.2 372 863.2 372C862.1 372 860.3 372.9 859 374C857.7 375.1 855.3 376 853.6 376C851.9 376 849.3 376.8 848 377.7C844.1 380.5 838.7 383 836.9 383C835.9 383 832.9 384.8 830.1 387C826 390.3 824.3 391 820.7 391C817.2 391 815.6 391.7 812.4 394.4C810.3 396.2 807.5 398 806.3 398.4C805.2 398.8 803.6 399.7 803 400.5C802.3 401.4 800 402 797.8 402C795.3 402 792.8 402.8 791.3 404C789.9 405.1 788.2 406 787.5 406C786.8 406 785.7 406.7 785 407.5C783.4 409.4 779.6 409.4 776.6 407.5C773.1 405.2 772.1 399.6 771.7 378C771.4 363.7 770.9 357.9 769.9 356.3C768.8 354.5 768.8 353.4 769.8 350.8C770.5 349 770.6 347.2 770.1 346.6C769.6 346 769 335.6 768.7 323.5C768.4 306.7 767.9 300.4 766.6 297C765.3 293.3 765 288.1 765 268.9C765 249.1 764.8 245 763.5 244C761.7 242.5 761.6 239.7 763.2 237C764.2 235.5 764.2 234.4 763.2 231.7C762.4 229.6 761.9 221.6 761.8 210.4C761.7 198 761.3 191.5 760.3 189.1C759.4 186.7 759.3 185.3 760 184.6C761.5 183.1 761.2 180.4 759.4 178.9C758.5 178.2 758 176.7 758.3 175.3C758.5 174 758.4 159.9 758 143.9C757.3 119.8 757 114.6 755.7 113.2C754.4 111.7 754.1 107.5 754 86.5C753.8 63.4 753.7 61.2 751.7 57.3C750 53.8 749.9 52.6 750.8 50.5C751.6 48.8 751.7 47.2 750.9 45.3C750.4 43.9 750 37.1 750.1 30.4C750.1 23.7 749.9 17.7 749.5 17.1C748.8 15.9 744.7 15.6 743.7 16.7Z" fill="white"/>
<path d="M1981 406C1981 406.5 1981.5 407 1982 407C1982.6 407 1983 406.5 1983 406C1983 405.4 1982.6 405 1982 405C1981.5 405 1981 405.4 1981 406Z" fill="white"/>
</svg>
