<svg width="686" height="466" viewBox="0 0 686 466" fill="none" xmlns="http://www.w3.org/2000/svg">
<path d="M514 135.2C514 138.7 513.6 142.1 513.1 142.9C512.4 144 509.4 144.3 499.3 144.2C476.3 144.1 401.8 142.8 390.5 142.5C377.5 142 323 142.1 311.5 142.5C307.1 142.7 290.9 143.1 275.5 143.5C260.1 143.9 242.6 144.4 236.5 144.7C230.5 145 216.6 145.4 205.8 145.7L186 146.1L185.9 140.8C185.8 137.9 185.8 134.7 185.9 133.7C186 132.8 185.7 132 185.2 132C184.7 132 184 135 183.7 138.6C183.3 142.3 182.9 145.4 182.7 145.6C182.6 145.8 178 146.2 172.5 146.5C167 146.8 162.4 147.3 162.1 147.5C161.9 147.8 166.2 148 171.8 148C177.3 148 182.1 148.3 182.3 148.7C182.5 149.2 182.4 154.7 181.9 161C181.5 167.3 180.9 177.9 180.5 184.5C180.2 191.1 179.8 198.7 179.6 201.5C178.9 210.1 178.9 240.4 179.5 251.2C179.8 256.9 180.3 265.3 180.5 270C180.8 274.7 181.3 284.5 181.6 291.7L182.2 305H175.7C172.1 305 168.8 305.4 168.5 306C168.1 306.6 170.5 307 174.9 307C178.8 307 182 307.1 182 307.2C182 307.4 182.3 311.5 182.6 316.5C183.3 327.1 184.9 330.2 185.2 321.4C185.2 318.2 185.4 315 185.5 314.5C185.7 313.9 185.8 312 185.9 310.2L186 307L193.2 307.5C197.2 307.7 212.2 308.2 226.5 308.5C263.3 309.2 293.2 310 309.5 310.5C323.9 311.1 370.3 311 384.5 310.5C388.9 310.3 405.1 309.9 420.5 309.5C446.3 308.9 463.7 308.2 475 307.5C482.6 307 512.1 306.8 512.5 307.2C512.8 307.4 513 311.3 513.1 315.8C513.2 320.3 513.6 324 514 324C514.4 324 515.1 320.2 515.5 315.5C515.9 310.2 516.6 307 517.3 306.9C534.9 306 539.3 305 525.8 305C521.2 305 517.1 304.8 516.9 304.6C516.7 304.3 516.8 299.3 517.1 293.3C517.5 287.4 518.1 275.7 518.5 267.5C518.9 259.2 519.5 246.6 519.9 239.5C520.2 232.3 520.2 220.9 519.9 214C519.5 207.1 518.9 195.2 518.5 187.5C518.2 179.8 517.7 171.2 517.5 168.5C517.3 165.7 517 160.1 516.9 156L516.7 148.5L522 148C525 147.7 527.5 147 527.8 146.2C528.2 144.9 526.4 144.7 519.8 145L516 145.2V137.6C516 133.5 515.6 129.8 515 129.5C514.4 129.1 514 131.2 514 135.2ZM512.3 147.9C513.2 148 512.5 170.1 510.4 203C509.1 223.8 509.6 260.6 511.2 261.6C511.6 261.9 512 261.6 512 260.9C512 258.9 513.4 260.8 513.5 263C513.7 265.2 512.4 265.7 511.7 263.7C511.5 263.1 511.2 264.9 511.2 267.7C511.1 270.6 511.5 273 512.1 273C512.6 273 513 273.7 513 274.5C513 275.3 512.5 276 512 276C511.3 276 511.3 276.6 512 278C512.7 279.3 512.7 280 512.1 280C511.5 280 511.3 281.5 511.5 283.2C512.2 288.3 512.3 302.7 511.7 303.7C511.4 304.2 507.4 304.6 502.8 304.4C461.5 303.4 423.4 302.6 371 301.9C369.7 301.8 368.4 302.3 368.2 302.9C367.7 304.5 366 304.2 366 302.6C366 301.6 364.7 301.2 361.5 301.2C359 301.2 357 301.6 357 302.1C357 302.6 356.3 303 355.4 303C354.6 303 354.2 302.5 354.5 301.9C355 301.2 353.7 301 350.8 301.2C348 301.4 346.6 301.9 346.8 302.7C346.9 303.4 346.6 304 346 304C345.5 304 345 303.3 345 302.5C345 301.5 343.9 301 341.5 301C338.8 301 338 301.4 338 302.7C337.9 304.4 337.9 304.4 336.9 302.7C336.4 301.8 335 301 333.8 301C332.1 301 332 301.2 333 302.5C334 303.7 334 304 333 304C332.3 304 331.2 303.3 330.6 302.6C329.4 301 325.8 300.8 306 300.9C298.2 301 295 301.3 296 302C297.3 302.8 297.2 303 295.8 303C294.8 303 294 302.5 294 301.9C294 300.8 292.4 301 288.6 302.6C287.1 303.1 286.9 303 287.5 302C288 301.3 287.9 300.9 287.4 301.2C286.9 301.5 274.6 302 260 302.4C212.4 303.5 193.5 304.2 192.5 305.1C191.9 305.5 190.5 305.7 189.5 305.5C188.4 305.3 187.1 305.1 186.6 305.1C186.2 305 186 300.8 186.4 295.7C186.7 290.7 187.2 280.6 187.5 273.5C187.8 266.3 188.5 253.3 189.1 244.5C189.6 235.7 189.8 225.7 189.6 222.4C189.3 219 189 211.4 188.9 205.6C188.8 199.7 188.3 194.7 187.8 194.4C187.4 194.1 187 194.4 187 195.1C187 197.1 185.6 195.2 185.5 193C185.3 190.8 186.6 190.3 187.3 192.2C187.5 192.9 187.8 191.1 187.8 188.2C187.9 185.4 187.5 183 186.9 183C186.4 183 186 182.3 186 181.5C186 180.7 186.5 180 187 180C187.7 180 187.7 179.4 187 178C186.4 176.8 186.3 176 186.9 176C187.4 176 187.7 174.1 187.4 171.7C186.6 163.2 186.2 149 186.9 148.9C189.2 148.6 202.9 148.7 232.5 149.4C251.2 149.9 279.1 150.4 294.5 150.7C309.9 150.9 323.6 151.1 325 151.1C326.3 151.2 327.6 150.7 327.8 150.1C328.3 148.5 330 148.8 330 150.4C330 151.4 331.3 151.8 334.5 151.8C337 151.8 339 151.4 339 150.9C339 150.4 339.7 150 340.6 150C341.4 150 341.8 150.5 341.5 151.1C341 151.8 342.3 152 345.2 151.8C348 151.6 349.4 151.1 349.3 150.2C349.1 149.6 349.5 149 350 149C350.6 149 351 149.7 351 150.5C351 151.5 352.1 152 354.5 152C357.2 152 358 151.6 358 150.2C358.1 148.6 358.1 148.6 359.1 150.2C359.6 151.2 361 152 362.2 152C363.9 152 364 151.8 363 150.5C362 149.3 362 149 363 149C363.7 149 364.8 149.7 365.4 150.6C366.4 151.9 369.5 152.1 385.3 152C396.4 152 404.9 151.6 406.1 151C407.2 150.4 408.5 150.2 409 150.5C410.4 151.3 418.6 151.4 439.5 150.6C448.9 150.3 467 149.8 479.8 149.4C492.6 149 503.3 148.4 503.5 148C503.9 147.3 505.5 147.3 512.3 147.9ZM370.3 150.7C369.6 150.9 368.2 150.9 367.3 150.7C366.3 150.4 366.9 150.2 368.5 150.2C370.2 150.2 370.9 150.4 370.3 150.7ZM401.7 150.6C401.4 150.9 400.5 151 399.8 150.7C399 150.4 399.3 150.1 400.4 150.1C401.5 150 402.1 150.3 401.7 150.6ZM187 200C187 200.5 186.5 201 185.9 201C185.4 201 185.2 200.5 185.5 200C185.8 199.4 186.3 199 186.6 199C186.8 199 187 199.4 187 200ZM187 208C187 208.5 186.8 209 186.6 209C186.3 209 185.8 208.5 185.5 208C185.2 207.4 185.4 207 185.9 207C186.5 207 187 207.4 187 208ZM513.5 248C513.8 248.5 513.6 249 513.1 249C512.5 249 512 248.5 512 248C512 247.4 512.2 247 512.4 247C512.7 247 513.2 247.4 513.5 248ZM514 255.4C514 255.7 513.6 256.2 513 256.5C512.5 256.8 512 256.6 512 256.1C512 255.5 512.5 255 513 255C513.6 255 514 255.2 514 255.4ZM329.3 302.7C328.6 302.9 327.2 302.9 326.3 302.7C325.3 302.4 325.9 302.2 327.5 302.2C329.2 302.2 329.9 302.4 329.3 302.7Z" fill="white"/>
</svg>
