<svg id="Layer_1" data-name="Layer 1" xmlns="http://www.w3.org/2000/svg" viewBox="0 0 356.77 154.1"><defs><style>.cls-1{fill:#fff;}</style></defs><path class="cls-1" d="M78.81,153.69h14V38.82a61.74,61.74,0,0,0-14,11.07Z"/><path class="cls-1" d="M58.54,153.69H69.7V62.23a61.21,61.21,0,0,0-6.36,16.3,42.37,42.37,0,0,0-4.8-2.68Z"/><path class="cls-1" d="M147.76,153.69h14v-125a73.33,73.33,0,0,0-6.9,10.55,62,62,0,0,0-7.09-3.59Z"/><path class="cls-1" d="M183.24,9.91a73.53,73.53,0,0,0-12.38,9V153.69h12.38Z"/><path class="cls-1" d="M27.66,74.16a40.84,40.84,0,0,0-9.59,4.75v68a40.84,40.84,0,0,0,9.59,4.75Z"/><path class="cls-1" d="M9,87.37a40.89,40.89,0,0,0,0,51.09Z"/><path class="cls-1" d="M313.4,67.06a43.18,43.18,0,0,0-19.28,4.56A73.94,73.94,0,0,0,192.35,5.45V153.69H311.06c.78,0,1.55.12,2.34.12s1.55-.08,2.33-.12h1.79v-.09a43.37,43.37,0,0,0-4.12-86.54Z"/><path class="cls-1" d="M138.65,32.55a61.18,61.18,0,0,0-13.28-1.84V154.1c1.91-.06,3.8-.18,5.66-.41h7.62Z"/><path class="cls-1" d="M116.25,31.12A61.32,61.32,0,0,0,102,34.55V153.69H116l.24,0Z"/><path class="cls-1" d="M49.42,72.78A40.78,40.78,0,0,0,41,71.9a39.78,39.78,0,0,0-4.25.22v81.59c1.4.14,2.81.22,4.25.22a41.66,41.66,0,0,0,4.35-.24h4.05Z"/></svg>