<svg id="Layer_1" data-name="Layer 1" xmlns="http://www.w3.org/2000/svg" viewBox="0 0 223.52 223.52"><defs><style>.cls-1{fill:#fff;}</style></defs><path class="cls-1" d="M111.76,0A111.76,111.76,0,1,0,223.52,111.76,111.76,111.76,0,0,0,111.76,0Zm51.6,162.12c-1.61,2.74-6.05,3.88-9.37,2.57s-1.87-1.31-9.67-5-29.89-9-42.21-9.43C70,149.21,61,153.8,57.19,154.66s-8.55-1.87-9.53-5.59a8.32,8.32,0,0,1,4.14-9.39c1.63-.94,16.09-7.17,51.67-4.85s53.37,13.3,58.29,17C165.8,154.8,165,159.38,163.36,162.12Zm14-30.9c-1.93,3.14-7.12,4.36-11,2.76s-2.14-1.57-11.12-6S120.75,116.82,106.45,116c-37.23-2-47.89,3.09-52.28,4s-9.9-2.37-10.94-6.72a9.64,9.64,0,0,1,5-10.8c1.92-1.06,18.86-8,60.14-4.43s61.68,16.72,67.31,21.09C180.33,122.77,179.25,128.07,177.33,131.22Zm2.93-30.54C175.71,98.9,177.69,98.9,167,94S126.1,81.8,109.25,81.3C65.41,80,53,86.31,47.87,87.49S36.16,85,34.81,79.91c-1.65-6.2,2-10.78,5.61-12.86,2.23-1.29,21.95-9.89,70.61-6.92S184.07,78,190.81,83c5.54,4.09,4.42,10.35,2.24,14.11S184.81,102.46,180.26,100.68Z"/></svg>
