<svg id="Layer_1" data-name="Layer 1" xmlns="http://www.w3.org/2000/svg" viewBox="0 0 240.23 196.97"><defs><style>.cls-1{fill:#fff;}</style></defs><path class="cls-1" d="M240.23,24.1s-8.85,4.81-26.11,6.69c7.6-5.43,16.47-14.25,19.39-27,0,0-8.91,8-31.88,11.85l-.57-.44a49.18,49.18,0,0,0-82.93,47C66,57.54,40.1,36.35,20.49,16.07a38.75,38.75,0,0,1-5-6.88c-10.72,17-9,40.7,5.74,58A56.59,56.59,0,0,0,31.05,76,65,65,0,0,1,16,73.56c-2.75-.9-5-2.57-7.48-3.87-.57,20.11,11.19,39.88,34,47.55,1.79.6,3.59,1.09,5.39,1.5a44.32,44.32,0,0,1-13.38,2.46,46.31,46.31,0,0,1-8.46-.68c5.82,18.68,24.2,33.13,46.08,33.9C54.76,167.92,33,175.94,7.23,175.94c-1.62,0-5.63-.09-7.23-.16A147.62,147.62,0,0,0,75.43,197c68,0,119.56-42.43,136.4-109.53a189.22,189.22,0,0,0,3.41-23.27,89.74,89.74,0,0,0,.32-15.08C224.18,44.69,235.32,36.82,240.23,24.1Zm-85,73.3.06-.13.17,0Z"/></svg>